<?xml version="1.0" encoding="UTF-8"?>
<svg viewBox="0 0 744.09448819 1052.3622047" xmlns="http://www.w3.org/2000/svg">
 <defs>
  <filter id="f">
   <feGaussianBlur stdDeviation="1.95165"/>
  </filter>
  <filter id="g">
   <feGaussianBlur stdDeviation="1.97891"/>
  </filter>
  <filter id="e">
   <feGaussianBlur stdDeviation="1.79232"/>
  </filter>
  <filter id="d">
   <feGaussianBlur stdDeviation=".54441"/>
  </filter>
  <filter id="c">
   <feGaussianBlur stdDeviation=".49412"/>
  </filter>
  <radialGradient id="b" cx="456.59" cy="815.99" r="222.73" gradientUnits="userSpaceOnUse">
   <stop stop-color="#f3f4f8" offset="0"/>
   <stop stop-color="#f8f9fd" offset=".69877"/>
   <stop stop-color="#cfd1d0" offset="1"/>
  </radialGradient>
  <radialGradient id="a" cx="276.02" cy="452.01" r="238.59" gradientUnits="userSpaceOnUse">
   <stop stop-color="#a9173c" offset="0"/>
   <stop stop-color="#7c102c" offset="1"/>
  </radialGradient>
 </defs>
 <path transform="matrix(1.0952 0 0 1.1202 -168.63 -390.29)" d="m678.82 815.99a222.23 222.23 0 1 1 -444.47 0 222.23 222.23 0 1 1 444.47 0z" fill="url(#b)"/>
 <path d="m481.25058,328.56244c-.3979.03769-.7275.32478-.8194.71373s.0743.7932.4132,1.00502c.4557.31205.9838.66571 1.75,1.09375 1.9324,1.07971 2.8864,1.60544 3.5,1.84375 .4212.17181.9048.01463 1.1445-.37195s.1655-.8897-.1757-1.19055c.041.03882.0108.00349-.0626-.0625-.1516-.1364-.3778-.35501-.6874-.5625-.5727-.3836-1.3304-.78421-2.0938-1.1875-.751-.39685-1.5378-.82969-2.25-1.125l-.25-.09375c-.1483-.06078-.3098-.08231-.4688-.0625zm-.6874,3.84375c-.4087.01364-.7608.29198-.8684.68646s.0545.81304.3996,1.03229c.1796.12226.4221.28062.9375.5625 .7528.41157 1.7742.94152 3.125,1.625 1.2441.6295 2.6923,1.48622 4.125,2.40625 .2772.17978.6288.19946.9243.05171s.4907-.44085.5132-.77046c.0527-1.0319.1224-2.07103.1875-3.15625 .0007-.02083.0007-.04167 0-.0625v-.03125c.0007-.02083.0007-.04167 0-.0625-.0258-.3706-.1248-.39106-.1563-.4375-.1144-.33528-.409-.57672-.7602-.62311s-.6984.11029-.896.40436l-.0625-.03125-.2813-.15625c-.0715-.03847-.0375.02217-.0937,0-.0588-.0382-.1217-.06965-.1875-.09375h-.0312l-.0626-.03125c-1.221-.51781-3.4862-1.01201-5.4062-1.21875-.6333-.06816-.9879-.08303-1.3125-.09375h-.0937zm6.6562,1.3125c.0552-.003.2019.03024.375.09375-.2362-.0649-.4545-.06471-.4688-.0625s.0245-.02748.0938-.03125zm-312.125,3.46875c-1.5986-.00817-3.5428.81008-5.6562,1.9375-.3131.16378-.5067.49048-.5.84375 .0203.67343.0875,1.45004.1562,2.25 .0282.31955.2187.60216.5044.74816s.6263.13489.9018-.02941c.5068-.29728 1.0084-.59098 1.5626-.90625 1.4618-.8318 2.5669-1.49933 3.375-2 .7862-.48731 1.2183-.80317 1.5312-1.125 .2369-.24256.3235-.59463.2261-.91941s-.3636-.57104-.6949-.64309c-.2581-.05568-.7292-.15279-1.4062-.15625zm306.6875,1.1875c-.3357.12975-1.2688.66931-1,.375-.7821,1.07339-.3515,1.22867-.3437,1.5 .2288.56045.5888.7967 1.0624,1.125 .979.67846 2.515,1.31931 4.6563,2 .6358.20213 1.3544.53414 2.0937.875 .2822.12641.6088.10463.8718-.05814s.4281-.44536.4408-.75436c.0048-.10083 0-.13463 0-.125 0-.56845.0161-1.2136.0312-1.875 .0132-.37148-.1955-.71531-.5312-.875-1.3826-.6471-2.7921-1.2056-4.0313-1.59375-1.2894-.40395-2.3505-.67356-3.25-.59375zm-303.4687,5.875-3.125.375c-1.6611.19371-3.2886.69167-4.8438,1.375-.3954.17833-.6156.60578-.5312,1.03125 .1447.75374.3011,1.52859.5,2.34375 .0674.28742.267.52591.5381.64295s.5814.09879.8369-.0492c.8169-.48042 1.6431-.95898 2.5312-1.4375l4.6562-2.53125c.4032-.20974.5964-.67965.4574-1.11235s-.5699-.70208-1.0198-.63765zm305.3437.9375c-1.1801,0-2.0008.05982-2.625.21875-.1373.03499-.2428.05941-.3437.09375-.0505.01717-.1212.03136-.1876.0625-.0444.02089-.1351.09099-.2187.15625l-.0313.03125-.0312.03125-.0312.03125 .6874.625c-.0002.00025-.7578-.53612-.7812-.5-.0467.07225-.0953.1464-.125.25-.0593.20719-.0279.48531.0625.6875 .1804.39977.3619.51649.625.75s.6.50181 1.0313.78125c.8461.54849 1.9917,1.17694 3.5,1.96875 .5415.28428 1.1447.66493 1.75,1.03125 .2555.14799.5659.16624.8369.0492s.4707-.35553.5381-.64295c.3136-1.21943.5796-2.3655.7812-3.46875 .0799-.4335-.1548-.8637-.5625-1.03125-1.7157-.69596-3.3708-1.12499-4.875-1.125zm-301.25,4.375c-2.575-.07395-6.1282,1.11189-9.6563,3.21875-.2037.12168-.4213.29303-.625.4375-.3375.23879-.4774.6713-.3437,1.0625 .4288,1.19427.9444,2.42045 1.5,3.65625 .1157.2492.3353.4347.6004.50698s.5484.024.7746-.13198c2.0008-1.42403 4.1355-2.74077 5.9687-3.65625 1.8416-.91955 3.0422-1.61249 3.7813-2.25 .1996-.17223.382-.36668.5-.53125 .0322-.04496.0346-.11564.0625-.15625l-.0938.09375-.2812.1875-.25.0625-.6562-.1875-.1563-.15625-.1563-.3125-.0312-.125v-.03125l-.0312-.15625 .0312-.125c-.0001.00054.1255-.34458.125-.34375l.125-.1875 .2812-.15625 .3438-.09375 .3438.0625c-.0008-.00025.0904.0567.1562.09375-.0581-.05624-.0578-.11366-.125-.15625-.5756-.36482-1.3114-.59986-2.1875-.625zm295.8125,2.75c-1.1453.0458-2.1374.19206-2.8438.34375-.3303.07094-.5712.15759-.6562.1875-.3244.11423-.5595.39773-.6118.73761s.0868.68095.3618.88739c.1775.13727.2905.20435.4062.28125 .3647.24235.8877.588 1.5313.96875 1.2668.74942 2.9569,1.64564 4.75,2.59375 1.02.5393 2.0452,1.14781 3.0313,1.78125 .2385.15106.5325.18594.7997.09485s.4788-.29833.5753-.5636c.4909-1.31527.9452-2.60815 1.375-3.9375 .1376-.41475-.0313-.86944-.4063-1.09375-2.7148-1.53865-5.5544-2.39154-8.3125-2.28125zm31.1562,2.96875c-.2812.03758-.53.20115-.676.44443s-.1732.53977-.074.80557c.2104.62427.4048,1.24023.625,1.875 .0926.2809.3129.50122.5938.59375 .8878.26891 1.7514.56459 2.4688.84375 .1237.04814.2111.11132.4687.21875 .4127.16597.8852.01724 1.1284-.35521s.1895-.86487-.1284-1.17604c-.2977-.29782-.454-.50643-.9063-.9375-.8253-.78649-1.8427-1.50808-2.875-2.15625-.1831-.1247-.4047-.18009-.625-.15625zm-321.6874,1c-4.1888.0322-8.2814,1.87634-11.875,5.09375-.3271.29312-.4052.77476-.1876,1.15625 .6443,1.11089 1.3607,2.22909 2.125,3.34375 .1486.21913.3833.36475.6457.40052s.5275-.04168.7293-.21302c2.2757-1.83688 5.9053-4.18357 8.5313-5.5l4.4063-2.21875c.3937-.17765.6138-.60241.5319-1.02647s-.4442-.73639-.8757-.75478l-2.6875-.21875c-.4448-.03723-.8735-.06612-1.3437-.0625zm281.75,3.3125c-.1802.02507-.6298.34932-.5.21875-.0074.00441-.0233-.00503-.0313,0l-.0313.0625c-.0412.02982-.053.02135-.0937.0625l-.0313.0625h-.0312c-.0055.00544.0144.01648 0,.03125l-.0625.03125c-.0002.01042-.0002.02083 0,.03125h-.0313c-.0241.0253-.0078.06787-.0312.09375l-.0312.0625c-.388.44846-.6954.95433-.6876,1.53125 .0086.63751.3462,1.23634.875,1.8125 1.0769,1.17363 3.079,2.46774 6.2813,4.21875 1.5087.82495 2.9403,1.76091 4.2813,2.78125 .214.16281.4879.22529.7513.17141s.4908-.21889.6237-.45266c.8605-1.44913 1.6812-3.15318 2.5312-5.03125 .1793-.39477.0627-.861-.2812-1.125-3.4868-2.65749-6.1695-3.31357-10.375-2.8125-.6817.08122-1.2037.12037-1.625.125-.3983.00438-.5798-.02937-.6876-.0625 .006-.06124-.0067-.10481.0938-.375 .0425-.11411.0475-.14301.0625-.1875 .1112-.30169.0591-.63938-.1379-.89352s-.5109-.38887-.8308-.35648zm42.9687,3.875c-.292.04065-.5476.21703-.6892.47563s-.1525.56894-.0295.83687c.3337.76904.6764,1.51521 1,2.1875l.0312.09375 .0312.0625 .0313.03125 .0313.0625c.0068.01374.0277.02426.0312.03125-.0002-.00031-.0001.03086 0,.03125l.0625.0625c-.0002.01042-.0002.02083 0,.03125l.0625.03125 .0312.03125 .0313.03125h.0313l.0624.0625c.0489.03628.1013.06768.1563.09375l.0937.03125c1.7346.9693 3.2807,2.27195 5.1876,4.34375 .8867.96338 1.5891,1.71075 2.125,2.25 .254.25563.3454.32968.5.46875 .3272.28015.8038.29964 1.1528.04715s.4796-.7112.3159-1.10965c-.0666-.15112-.096-.35449-.2813-.71875-1.7281-3.39401-5.6166-6.95085-9.3437-9.3125-.1831-.1247-.4047-.18009-.625-.15625zm-315.4375.96875c-2.2892.05714-4.6913.58631-7.25,1.625-1.8402.74696-4.2366,2.90837-6.5312,5.25-.3489.35107-.3626.91356-.0313,1.28125 1.3696,1.45067 2.8942,2.90227 4.5313,4.3125 .3708.30349.9113.27647 1.25-.0625 2.9768-3.03425 6.7441-5.51049 11.1874-7.375 1.0024-.42061 1.7565-.83837 2.3126-1.21875 .2839-.19425.5084-.39609.6874-.59375s.3513-.40081.4063-.78125c.0487-.33587-.1671-.76128-.25-.875-.1373-.18838-.3726-.37369-.6563-.53125-.5398-.29992-1.2082-.49674-2.125-.6875-.8259-.17187-1.6884-.31155-2.5624-.34375-.3291-.01211-.6483-.008-.9688,0zm262.9375,2.34375c-.7082.0007-1.3715.37192-1.7187,1-.3364.60921-.3266,1.44131.125,2.1875 .1512.24974.1657.22772.2187.28125s.1156.08967.1875.15625c.1439.13315.3387.31151.5625.5 .4463.37574 1.0312.82994 1.7187,1.34375 1.3813,1.03232 3.1965,2.27863 5.0938,3.53125 1.6467,1.08717 2.9628,2.03221 4.1875,2.9375 .3328.25174.7922.25174 1.125,0l3.625-2.71875c.8753-.65771 1.4579-1.0643 1.8437-1.28125 .2662-.15279.4402-.42682.4652-.73276 .0249-.30593-.1023-.60455-.3402-.79849-.892-.75784-1.8451-1.47637-2.9062-2.21875-1.6173-1.13169-2.8323-1.88664-4.0938-2.28125s-2.5203-.41605-4-.21875c-2.3613.31487-3.6607-.02546-4.25-.75-.5081-.62478-1.2123-.93813-1.8437-.9375zm-321.3125,4.125c-.3445.02817-.6452.24467-.7812.5625-1.0007,2.27656-1.7635,4.79177-2.3126,7.65625-.0991.43925.1298.88658.5441,1.06303s.8955.03157 1.1435-.34428c.4458-.66024 1.0178-1.71912 1.9062-3.5625 .4791-.99422.9985-1.95319 1.5312-2.875 .2087-.3671.1446-.82865-.1562-1.125-.4202-.40558-.824-.78661-1.1875-1.125-.1855-.17352-.4338-.26381-.6875-.25zm312.4688,1.84375c-.3869.00443-1.3971.78108-1,.53125-.0956.08179-.2882.3444-.2188.25h-.0312c-.0054.00619.005.0248 0,.03125l-.0313.03125c-.0002.01042-.0002.02083 0,.03125l-.0313.03125c-.9188.98976-.9797,2.44866-.3437,3.5625 .6866,1.20246 2.0384,2.15528 3.75,2.59375 .1676.04292.5084.22512 1.0313.5625 .4933.3185 1.1061.74817 1.7812,1.28125 1.2767,1.0078 2.7775,2.39903 4.2812,3.84375 .3167.29645.796.33531 1.1563.09375 2.2502-1.43034 4.2317-2.78949 6-4.03125 .2265-.1627.3683-.41829.3865-.69661s-.0893-.55016-.2928-.74089c-.2575-.22773-.5547-.48693-.8124-.6875-2.0284-1.57898-3.2603-2.47693-4.6876-2.90625s-2.9188-.34589-5.3124-.09375c-1.242.13082-2.186.2247-2.875.25-.696.02555-1.0851-.01023-1.3126-.09375-.1142-.04195-.2004-.15494-.2187-.21875-.0569-.19841-.0625-.59826-.0625-1.21875 0-.65381-.0101-1.0835-.0938-1.5-.0402-.20008-.1934-.47777-.1874-.46875-.1856-.29943-.5241-.46869-.875-.4375zm-221.3126.4375c-.4352,0-.7451.13634-1.1562.3125s-.8664.41455-1.375.75c-.2498.16475-.4356.26358-.625.40625-.3214.2317-.4613.64125-.3487,1.02114s.4529.64715.8487.66636c.1011.00559.3177.0284.625.03125 .5886.00544 1.1159-.16095 1.5938-.375 .4718-.21132.8951-.40327 1.2187-.9375 .0984-.16243.0766-.28412.125-.4375 .0646-.12158.125-.24997.125-.25l.0313-.3125c-.0001-1e-005 .0015-.0241 0-.03125-.0088-.0405-.0625-.15619-.0626-.15625l-.0624-.1875-.0626-.09375-.125-.125c-.1114-.105-.1646-.14945-.25-.1875-.1707-.07609-.3457-.09375-.5-.09375zm-87.9062.90625c-.3078.03679-.5772.22419-.7188.5-2.4554,4.46702-4.2667,9.80973-4.1562,13.46875 .0169.55764.0156.87469.0312,1.25 .0119.33527.2031.63828.5005.79346s.6553.13857.9371-.04346c.1516-.09915.271-.24032.3437-.40625l.0313-.0625c.0094-.02165.0232-.00794.0312-.03125 .1977-.57751.4323-1.345.75-2.375 1.1649-3.7763 2.7425-7.31857 4.5-10.34375 .2087-.3671.1446-.82865-.1562-1.125-.4626-.45973-.9148-.91577-1.3438-1.34375-.1949-.20184-.4704-.30514-.75-.28125zm375.625,0c-.2702.02661-.5153.16967-.6714.39179s-.2076.50125-.1411.76446c.2925,1.20473.5052,2.50803.625,3.90625 .035.25059.1704.47618.375.625 2.819,2.21831 4.9449,4.89858 5.4375,7 .3559,1.51915 1.2219,3.92389 2,5.5 .3811.77192.7676,1.45307 1.0938,1.96875 .0011.00183.0339.05793.125.1875 .259.32617.7029.441 1.0876.28133s.6167-.55513.5686-.96883c-.093-.52197-.2621-1.1868-.5-1.9375-.4558-1.43802-1.1146-4.47798-1.4375-6.625-.6243-4.14555-3.5085-7.8672-7.9375-10.9375-.1831-.1247-.4047-.18009-.625-.15625zm-308.7812.15625c-4.7589.07827-9.9275,2.85937-13.4688,6.90625-.1825.20303-.2668.47581-.2307.74638s.1889.51174.4182.65987c1.649,1.06334 3.4103,2.15101 5.375,3.1875 .3595.1928.8026.12949 1.0937-.15625 1.7578-1.70042 3.9766-3.44825 7.2188-5.6875 1.2612-.87106 2.2016-1.50199 2.9062-2.03125 .7138-.5362 1.1021-.85499 1.4063-1.34375 .0275-.04407.0649-.0954.0937-.15625 .0145-.03043.0127-.06848.0313-.125 .0093-.02826.0214-.04507.0313-.09375s.0312-.21809.0312-.21875 .0066-.05021 0-.09375c0,0 .0017-.02114 0-.03125h-.0312v-.03125c-.0001-.0001.0061-.04278 0-.0625l-.0626-.125c-.0256-.05836-.0511-.12607-.0937-.1875-.0018-.00352 0-.03124 0-.03125l-.125-.09375c-.0758-.08018-.1416-.15667-.25-.21875-.5263-.30079-.9172-.31145-1.5313-.46875-.9081-.23264-1.819-.36009-2.8124-.34375zm23.2812,2.375c-.1451.04169-3.558,1.25195-.9688.4375-.3002.19368-.6344.44361-1,.78125-.985.90991-3.3528,1.72868-5.4062,1.78125-5.262.13475-10.6314,4.13756-13.9062,9.5625-.1392.23618-.1675.52166-.0772.78053s.29.46487.5459.56322c2.3802.96121 4.9087,1.89679 7.5313,2.8125 .3843.14022.8152.01349 1.0624-.3125 1.3889-1.80089 3.1505-3.74845 5.5313-6.21875 2.0945-2.17329 3.9952-4.27886 5.375-5.90625 .6841-.807 1.2481-1.4741 1.6563-2.03125 .2002-.27354.3666-.4906.5-.71875 .0622-.10631.13-.29596.125-.28125 .1112-.3017.0591-.63942-.1379-.89357s-.511-.38886-.8309-.35643zm-85.5938,1.9375c-.29.03968-.5446.21325-.6874.46875-.9763,1.66638-1.7717,3.50332-2.3438,5.5-.8941,3.11904-1.428,6.05228-1.5312,8.375-.0519,1.16439.0192,2.16006.1874,2.96875 .1715.82438.4733,1.431 1.0626,1.8125l-.25-.375-.0626-.25 .1876-.625 .125-.125 .1874-.125 .0313-.03125 .4063.84375-.2188-.90625h.0625l.1563.90625 .1562.90625c.1708-.03178.5789-.25378.7188-.4375 .3526-.46487.4062-.90483.4062-1.53125 0-1.28318.6159-3.28113 1.6875-5.5625 1.0392-2.21254 2.4874-4.68654 4.0625-7.03125 .2686-.38045.2152-.90074-.125-1.21875-1.2108-1.15582-2.3689-2.23742-3.4375-3.28125-.202-.21096-.4912-.31506-.7813-.28125zm291.5626,2.5625c-.2801.0977-.4945.13055-.7188.125-.3561.01674-.6715.23508-.8125.5625 .0451-.10611-.0617.09216-.1563.3125-.0255.0501-.0464.10239-.0624.15625-.0158.06153.0068.02345 0,.0625-.1656.78365.1122,1.37302.5312,2.15625 .8525,1.59324 2.5929,3.5337 4.9688,5.34375 1.5937,1.21418 2.9686,2.49534 4.2187,3.78125 .2784.2819.7045.35709 1.0625.1875 2.4884-1.24026 4.7988-2.49965 6.9688-3.71875 .2509-.14582.4197-.4002.4564-.6881s-.0627-.57649-.269-.78065c-3.7075-3.7492-8.0077-5.50264-13.9062-5.875-.5081-.03207-.8551-.13368-1.0312-.21875 .0339-.10825.0921-.20571.0937-.3125 .0015-.10054-.0076-.18975-.0313-.28125-.0118-.04575-.0096-.07404-.0312-.125-.0108-.02548-.0444-.06049-.0625-.09375l-.0937-.15625-.0938-.09375c-.0273-.02412-.0456-.04999-.0625-.0625-.0337-.02502-.0746-.0508-.0937-.0625-.0383-.02341-.067-.01792-.0938-.03125-.0537-.02666-.0968-.07224-.1562-.09375-.119-.04301-.2535-.07702-.4376-.09375-.0623-.00629-.1251-.00629-.1874,0zm-189.8438,2c-.0931-.15849-2.6895,1.55893-.9688.53125-.431.36132-.9176.85894-1.5312,1.53125-.5065.55491-1.0962,1.00752-1.5625,1.25-.1966.10228-.3888.15922-.5625.1875-.2593.04217-.1093.04116-.125.03125-.4136-.26084-.797-.28408-1.2188-.28125s-.8844.05922-1.4062.1875c-1.0336.25405-2.2072.72071-3.4062,1.3125-2.4037,1.18637-4.8752,2.83341-6.1876,4.53125-.5776.74742-1.2012,1.90153-1.875,3.125-.1359.24871-.1513.54574-.0419.80719s.3319.45889.6045.53656c2.6608.7753 5.4285,1.52133 8.25,2.25 .3691.08312.7518-.06503.9687-.375 1.533-2.20032 3.4894-4.83596 6.375-8.5 1.4501-1.8415 2.4834-3.43235 3.0937-4.59375 .2908-.55343.4938-.9655.5938-1.375 .0748-.29525.0006-.60842-.1986-.83879s-.4984-.3489-.8014-.31746zm-95.1562,1.625c-.3446.02813-.6453.24464-.7813.5625-2.8459,6.35024-3.6484,13.63742-1.5,19.15625l.8437,2.125c.1339.38692.5046.64121.9137.62685s.7612-.294.8676-.68935l1.875-6.125c1.3402-4.34492 2.3926-7.2583 3.6875-9.71875 .2009-.37395.1238-.83642-.1875-1.125-1.7656-1.57189-3.4568-3.09764-5.0313-4.5625-.1855-.17349-.4338-.26378-.6874-.25zm272.7812.6875c-.2875-.0164-1.2614.66602-.8438.40625-.1365-.16137-.3238-.27156-.5312-.3125h-.0312l-.0938-.03125h-.0938c-.1088.01265-.2146.04439-.3124.09375h-.0313l-.0937.03125c-.3031.15859-.495.47045-.5.8125l.125.46875c.0004.0007.1276.15808.2187.25-.1807.22562-.4426.43403-.5625.6875-.2699.57024-.2992,1.26172-.125,1.875 .3719,1.30769 1.4738,2.58846 3.4062,4.5 1.8416,1.82181 3.4067,3.74924 4.6563,5.75 .2369.37811.7086.53533 1.125.375 2.7545-1.05212 5.3603-2.18758 7.8437-3.28125 .2415-.10581.4269-.30893.5103-.55906s.057-.52387-.0727-.75344c-.614-1.01705-1.3064-2.02026-2-2.8125-1.1523-1.31623-2.0513-2.13316-3.1563-2.625s-2.3465-.60759-4.0313-.5625c-1.0638.02847-1.9568-.03825-2.5-.15625-.2532-.05501-.2897-.06724-.3437-.09375 .0516-.30226.1386-.61979 0-.84375-.1157-.18794-.3284-.36272-.5313-.4375s-.3873-.09374-.5624-.09375c-.0506,0-.1339-.02183-.2188-.15625-.1075-.16989-.1875-.48313-.1875-.84375 0-.44468.0114-.65683-.125-1.0625-.137-.39496-.5202-.65042-.9375-.625zm-.6875,1.46875 .8437.03125-.0937.375-.125.21875-.0937.09375-.5313-.71875zm92.9375.25c-.448.04085-.8029.39576-.8438.84375-.1819,1.81803-.3999,3.60825-.7187,5.28125-.0578.26085-.0009.53394.1563.75 1.0165,1.35376 1.8916,2.85808 2.6562,4.5625 1.2721,2.83587 2.5185,4.95995 3.4375,6 .2166.24502.4604.40051.4687.40625 .2505.17539.5711.21679.8579.11079s.5035-.34591.5797-.64204c-.0299.08328-.0152-.04193 0-.09375l.0312-.03125c.0268-.12839.0397-.26622.0312-.375-.0296-.3778-.126-.73493-.25-1.21875-.1353-.52829-.159-1.04581-.125-1.34375 .0109-.09441.0188-.09436.0313-.125 .1734-.05894.3255-.16763.4375-.3125 .0279-.03703.1364-.15774.1875-.34375s.0318-.2237.0313-.21875c.044-.39333-.0274-.70934-.125-1.15625-.1961-.8966-.5912-2.05803-1.125-3.34375-1.0677-2.57052-2.6479-5.56216-4.1563-7.5625-.2434-.32283-.5274-.60656-.7813-.875-.1959-.22243-.4859-.33844-.7812-.3125zm-250.0938.96875c.1888-.10603-3.7074,1.26137-.8437.28125-.5404.23424-1.1653.57276-1.8437.9375-1.3811.74253-3.0503,1.72817-4.75,2.90625-3.9062,2.70727-6.7979,5.42114-9.125,8.625-.1898.25595-.2357.5911-.1218.88867s.372.51634.6842.58008c2.6946.57571 5.413,1.15078 8.2188,1.6875 .3928.08493.7958-.09139 1-.4375 1.2671-2.18792 2.4742-4.14569 3.4375-5.3125 1.9008-2.30319 3.024-3.76741 3.4687-4.9375 .2182-.57392.3882-1.06501-.0624-1.65625-.2288-.29959-.4493-.39078-.6876-.46875-.0729-.02389-.1719-.01439-.25-.03125 .1305-.14216.167-.2358.4688-.46875 .6096-.47064.8988-.7708 1.125-1 .2775-.27386.3554-.69151.1951-1.04694s-.5249-.57357-.9139-.54681zm158.7813.875 1.5937.90625c.0086-.00335.0628-.04701-.0312.09375-.0291.0438-.0461.12174-.25.25-.051.03207-.1332.06558-.2188.09375s-.3133.03122-.3124.03125l-.375-.09375-.2813-.1875-.125-.21875c-.0324-.06254-.0797-.10804-.0937-.15625-.0281-.09643-.03-.18308-.0313-.25s.0161-.11424.0313-.1875c.0075-.03663.0145-.07831.0312-.125s.0629-.1569.0625-.15625zm-20.4063,2.6875c-.4248-.65478-3.2041,4.47244-1.2187,1.46875-.0041.01134-.0273.02019-.0313.03125-.1385.12464-.2364.28791-.2812.46875-.1249.48745-.081.88468 0,1.4375s.2218,1.2209.4375,1.9375c.4264,1.41718 1.0911,3.08991 1.9063,4.75 .7317,1.48985 1.3635,3.07489 1.875,4.71875 .1474.46036.6222.7317 1.0937.625 3.4187-.82161 6.6711-1.71309 9.8125-2.65625 .2552-.08128.463-.26835.5707-.51355s.1047-.52485-.0082-.7677c-1.8345-4.03485-4.0708-7.22405-6.625-8.25-1.3747-.55224-3.7112-1.60703-5.0937-2.34375-.5789-.30855-1.0285-.57606-1.4688-.75-.4154-.16408-.8663-.1627-.9688-.15625zm-118.375,2.21875c-.8223.13113-1.4937.5965-2.3124,1.375-.5166.49124-1.2395.98423-1.9376,1.3125s-1.3568.50001-1.8124.5c-.7432,0-1.4826.24988-2.1876.59375-.7049.34387-1.3587.78421-1.8437,1.375-.9472,1.15405-2.2904,3.48998-3.6563,6.15625-.1354.26628-.135.58131.0011.84724s.3913.45054.6865.49651c3.2216.50444 6.5033,1.02068 9.8124,1.46875 .3862.04517.7599-.15411.9376-.5 .1573-.28339.3243-.54404.5-.84375 1.7028-2.90187 2.6211-4.69905 3.0624-6.0625 .4351-1.34413.2568-2.46406-.2812-3.34375-.3315-.54183-.3772-.78301-.4062-.96875 .1521-.01771.2991-.05653.4374-.125 .098-.0485.2006-.11213.2813-.1875s.1289-.11282.2187-.3125c.2452-.54275.1152-.85273-.125-1.25-.2143-.35373-.4978-.47087-.7187-.53125s-.4345-.03533-.6563,0zm-123.4062,1.09375c-.3519.03379-.6544.26373-.7812.59375-2.3544,5.6548-2.9474,12.1801-.75,16.90625l1.375,2.9375c.175.35773.5579.56479.9531.51539s.7153-.34434.7969-.73414l1.5-7.15625c.608-2.88491 1.2943-5.49731 1.875-7.4375 .0915-.01566.2066-.02721.2187-.03125l.0625-.03125c.0234-.00781.0449.00585.0625,0s.0313-.03125.0313-.03125l.4062-.25 .0312-.03125 .0626-.0625c0,0 .2031-.28126.2187-.3125 .0078-.01562-.0058-.01968 0-.03125l.0313-.03125c0,0 .0937-.39746.0937-.40625v-.0625-.03125-.0625-.03125h-.6563c-.0088-.28424-.1469-.5489-.375-.71875l-.0312-.21875c-.2039.02631-.3081.0557-.3438.0625h-.0312l-.0312-.03125-.2188-.03125h-.0625c-.0064-.00511-.0249.00511-.0313,0-1.2673-1.01706-2.5109-2.05465-3.7187-3.0625-.1905-.16222-.4383-.24105-.6875-.21875zm222.5,1.09375c-.5215.04362-1.9605.61826-1.4688.46875 1.0339.38551.7094-.04264 1,.75-.0196.78007.0252.33563-.1562.65625l-.7188-.59375-.7812-.5c-.2552.41625-.2846.79739-.2812,1.21875s.0801.89459.1874,1.5c.2893,1.63135 1.3688,5.26338 2.4688,8.3125 .2237.62027.4358,1.46683.6562,2.34375 .1063.47016.5534.78179 1.0313.71875 3.2776-.41278 6.4752-.92669 9.5625-1.46875 .2519-.04364.4748-.18878.6165-.40147s.1901-.47426.1335-.72353c-.8756-3.58619-1.908-6.19954-3.2812-7.875-1.3986-1.70626-3.28-2.38366-5.3126-1.96875-.489.09985-.8948.13807-1.1874.15625-.2073.01288-.2217.00827-.2813,0 .0069-.06438-.0066-.12865.0625-.3125 .115-.3059.1756-.61514.1562-.875-.031-.41719-.1237-.61387-.4374-.90625-.5754-.53613-1.0828-.50001-1.9063-.5h-.0625zm-18.7812,2.25 .0312.09375c-.1238.02053-.3041-.03497-.375,0-.1773.08744-.2607.17073-.3438.25-.1661.15853-.2803.29331-.4062.46875-.2519.35088-.4954.78014-.6875,1.125-.096.17243-.1873.30832-.25.4375-.0313.06459-.0651.11398-.0937.1875-.0144.03676-.0105.09918-.0313.1875-.0104.04416-.0313.09147-.0313.21875 .0001.03182-.0055.0483 0,.09375s.0312.18708.0313.1875l.0937.21875 .25.25c.0174.4199.0259.85414.1563,1.28125 .0444.1455.1027.50892.1563,1.0625 .0509.52632.0901,1.18715.125,1.96875 .0653,1.46163.1026,3.32162.0937,5.21875-.0016.2546.101.49878.2839.67584s.4304.2716.6848.26166l1.0938-.03125c2.9683-.09181 5.7985-.26736 8.625-.46875 .4944-.03044.8787-.44218.875-.9375 .0417-3.15484-.2787-5.36092-1.125-6.96875-.8689-1.65074-2.3438-2.60106-4.2812-3.125-.7151-.19332-1.4643-.51946-2.0938-.875-.6534-.36914-1.0861-.69692-1.2188-.90625-.1743-.27528-.3644-.51393-.625-.6875-.0952-.06342-.2271-.02324-.3437-.0625v-.03125c-.0505-.02716-.0748.01683-.125,0-.1651-.03894-.3078-.12198-.4687-.09375zm-59.8438.71875c-.7431-.01524-1.448.26115-2.3438.71875s-1.928,1.13116-3.1874,2c-1.9541,1.34792-3.8894,3.7105-5.5626,6.4375-.1781.27262-.201.61839-.0605.91213s.4241.4929.7481.52537c3.2191.35139 6.4209.67421 9.6874.96875 .4371.03637.8404-.23685.9688-.65625 .5898-1.79426 1.1498-3.7614 1.375-5.4375 .2178-1.62144.275-2.84048.0938-3.78125-.0869-.45096-.2224-.86609-.5313-1.1875-.2521-.26234-.75-.49103-1.1875-.5zm38.5.6875c-.541.14183-.8607.57647-.7188.46875-.1771.17277-.2783.40885-.2812.65625-.0016.03123-.0016.06252 0,.09375-1.5601,5.07007-2.3018,7.8051-2.7188,10.59375-.0373.26444.0405.53219.2138.73538s.4255.32229.6925.32712c3.3298.06708 6.6772.09279 10,.09375 .4842.00488.8915-.36172.9375-.84375 .2849-2.54044.3951-4.14328-.375-5.65625-.7929-1.55817-2.3295-2.83057-5.2188-5.21875-.5012-.41435-.9306-.73977-1.3437-.96875-.3193-.17695-.605-.18562-.9063-.1875l-.0312-.09375h-.0312-.0313v.0625h-.0313v-.0625h-.0624c-.0221.00082-.0407-.00763-.0938,0zm167.9062.5c-.2619.02676-.5002.16297-.6562.375-.6943.91207-1.8385,2.01981-3.4062,3.28125-.3606.30098-.441.82325-.1876,1.21875 .7313,1.16651 1.3974,2.33903 1.9376,3.53125 .4794,1.05793.9951,2.11577 1.5,2.96875 .2628.44395.5485.8471.75,1.125 .2327.32138.4487.53179.6562.6875 .7429.557 1.3717.85798 2.0938.6875 .2984-.0705.6903-.36667.8437-.59375 .1488-.22003.3016-.58729.375-1 .2809-1.57678-.0798-4.00276-1-7.46875-.395-1.48817-1.1227-2.94446-2.0313-4.375-.1856-.29943-.5241-.46869-.875-.4375zm-188.375,4.34375c-2.0886-.07668-4.2493.21536-5.6562,1.15625-1.2885.86165-2.2565,2.44758-3.125,4.40625-.1249.27736-.1066.5982.049.85958s.4289.43043.7322.45292c3.7333.25818 7.4964.44446 11.25.625 .4533.0113.8491-.30524.9376-.75 .2569-1.20319.4623-2.29087.5937-3.09375 .0689-.42091.1603-.76349.1875-1.09375 .0138-.16777.0034-.28039 0-.375-.0006-.01725-.0008.01729 0-.03125 .0029-.18882-.0515-.37407-.1562-.53125-.442-.65941-1.0934-.90461-1.9063-1.15625-.8356-.25875-1.8583-.43028-2.9063-.46875zm-147.875,1.21875c-.4496.02403-.8178.36592-.875.8125-.0307.21498-.0435.36764-.0312.5625 .0026.04114.0893.13479.0938.1875-.0564.12366-.0378.12288-.125.3125-.0461.08815-.0777.1831-.0938.28125-.0134.15027-.0112.15718 0,.03125-.7072,7.71652-.4386,9.87526 2.2188,16.25 .5106,1.225.8899,2.03065 1.4062,2.59375 .1202.13117.2358.2256.375.3125 .0696.04345.1528.09202.25.125s.1416.08585.4688.03125c.0003-6e-005 .1259-.021.1562-.03125s.045-.02383.0625-.03125c.0349-.01484.042-.02039.0625-.03125 .041-.02173.0941-.04175.125-.0625 .0618-.0415.0961-.06874.1562-.125 .1204-.11252.2622-.27587.375-.46875 .425-.72658.6939-1.79043 1.0626-3.46875s.757-3.892 1.25-6.8125c.2651-1.57086.6168-3.10168.9687-4.59375 .0909-.38581-.0721-.78693-.4063-1-2.3731-1.54555-4.6691-3.09355-6.9062-4.6875-.1706-.12871-.3802-.1949-.5938-.1875zm327.4063,1.71875c-.1459.01929-.2851.07284-.4063.15625-1.3494.89869-2.8484,1.83761-4.4374,2.8125-.2192.13867-.3707.36236-.4181.61734s.0135.5182.1681.72641c1.2724,1.63135 2.0312,3.11794 2.0312,3.90625 0,.82309.3621,1.54141.8438,2.46875 .4772.91862 1.111,1.92358 1.8437,2.8125 .9376,1.13721 1.6804,1.93303 2.3437,2.46875 .3312.26744.576.4725 1,.625 .1707.06143.4429.1156.6876.0625s.3392-.15382.3437-.15625c.2425-.13044.544-.39384.6875-.8125 .1294-.37731.166-.74983.1875-1.1875 .0446-.90794-.052-2.07043-.25-3.59375-.543-4.1778-1.7185-7.54932-3.7187-10.5-.1988-.29845-.5512-.45641-.9063-.40625zm-13.4687,8.03125c-.1109.02235-.2168.06471-.3126.125-1.9674,1.08638-4.0012,2.21754-6.0937,3.3125-.222.11786-.387.32035-.4576.56157s-.0408.50073.0826.71968c.5698,1.02256 1.1454,2.06942 1.7187,3.34375 .7776,1.72885 1.7326,3.46816 2.6563,4.90625 .9292,1.4468 1.7599,2.51628 2.5625,3.09375 .5199.37402.8824.68301 1.2812.90625 .2053.11487.3879.20591.5626.25 .0698.01763.19-.01262.25,0 .0553.01797.0414.03251.1874.03125 .0244-.00021.0375-.02794.0626-.03125 .2753-.0364.5908-.21274.6874-.34375 .0003-.00029.0757-.11962.0938-.15625s.0227-.07093.0312-.09375c.0172-.04565.0258-.07309.0313-.09375 .011-.04132-.0026-.04951 0-.0625 .0052-.02599.0292-.02125.0313-.03125 .0041-.02-.0138-.05027 0-.09375 .1046-.33041.228-.77417.3124-1.34375 .086-.57735.2358-1.24349.4376-1.8125 .2055-.58004.4327-1.01847.5937-1.21875 .1356-.16904.1299-.21629.1563-.28125s.0453-.11768.0624-.1875c.0343-.13964.0676-.3147.0626-.5-.0105-.38931-.1063-.66274-.1876-1.03125-.1695-.77014-.4407-1.75139-.8437-2.84375-.7721-2.09228-1.9178-4.53841-3.0313-6.625-.1777-.34581-.5512-.54509-.9374-.5zm-296.8438,1.125c-.4702.04471-.8327.43403-.8438.90625-.18,6.39256 1.3084,13.00995 4.625,16.75 .5486.61871.9975.9843 1.4376,1.21875 .0892.04756.1673.0881.25.125l.1562.0625c.0638.02099.106.07997.375.0625 .1678-.01092.6399-.21248.7812-.375 .4214-.48453.4692-.92336.5313-1.65625 .0597-.70448.0417-1.61266-.0313-2.71875-.1501-2.27718.1997-5.87237.875-9.5 .0739-.40738-.1298-.81466-.5-1-2.4095-1.19115-4.7739-2.45168-7.0937-3.75-.1696-.10002-.3665-.14378-.5625-.125zm282.25,6.5c-.1196.00885-.2363.04069-.3438.09375-2.4387,1.19667-4.9087,2.40288-7.4062,3.5625-.2592.12444-.4464.36147-.5075.6424s.0109.5743.195.7951c1.2647,1.50203 2.1036,2.84387 2.8125,4.375 .6216,1.34275 1.3729,2.76032 2.0625,3.96875s1.2737,2.15197 1.75,2.71875c1.0228,1.21714 2.1043,1.91841 3.25,1.875 1.1448-.04336 2.1019-.89122 2.7813-2.1875 .4658-.8885.6151-2.02331.5624-3.375s-.3294-2.83362-.7187-4.34375c-.7723-2.99596-2.029-6.03062-3.6875-7.8125-.1891-.21335-.4654-.32848-.75-.3125zm-263.1562,2.53125c-.2502.02963-.4778.1593-.6309.35947s-.2186.45376-.1817.70303c.1266.93909.2925,1.90432.4688,2.9375 1.0105,5.93154 2.3678,9.78208 6.0625,17 .2819.55081.5218.95886.7187,1.28125 .0585.0957.1139.18864.1876.28125 .1815.22222.4551.34852.742.34242s.5549-.14393.7267-.37367c-.0326.03844.0031-.02496.0313-.0625l.0312-.03125c.0371-.05509.0698-.10688.0938-.15625 .1299-.26789.3066-.6858.5-1.21875 .164-.45257.2472-.98141.3437-1.8125s.1728-1.85864.25-3.0625c.1545-2.41077.2562-5.44951.2813-8.53125 .0103-1.27638.0511-2.45834.0937-3.625 .007-.41438-.2604-.78361-.6563-.90625-1.5812-.51628-3.1391-1.06808-4.6562-1.59375-.345-.12639-.7321-.03837-.9885.22479s-.3343.65236-.199.99396c-.1989-.20253-.4247-.3957-.6875-.71875-.2977-.36608-.4413-.59826-.5312-.75 .0026-.38657-.2336-.73465-.5938-.875-.333-.1258-.6506-.23347-.9375-.34375-.1483-.06076-.3097-.08229-.4687-.0625zm244.9687,5.78125c-.1089.01264-.2147.04437-.3125.09375-2.8829,1.22498-5.7467,2.37205-8.5625,3.46875-.2599.10314-.4597.31745-.5445.58386s-.0455.5568.107.79114c.6076.97104 1.1882,1.96469 1.8125,3.09375 .8433,1.52493 1.8871,3.1296 2.9063,4.5s1.9564,2.48798 2.75,3.125c.7463.59919 1.3537,1.04195 1.9062,1.3125 .2503.12256.4648.21452.7812.25s.7098-.07132.9376-.21875c.5588-.36197.8397-.86966 1.1562-1.65625 .3108-.77203.5946-1.76949.9688-3.0625 .4902-1.69442.7469-2.87036.625-4.125s-.6093-2.44743-1.4376-4.15625c-.5415-1.11727-1.4004-2.36835-2.2812-3.59375-.1821-.26713-.4896-.42086-.8125-.40625zm-221.4687,1.75c-.2502.02963-.4778.1593-.6309.35947s-.2186.45376-.1817.70303c.0953.75458.2204,1.53658.3438,2.3125 .5265,3.31145 1.4418,6.82827 2.4375,9.59375 .4978,1.38256 1.013,2.59981 1.5,3.46875 .2625.46851.5357.79669.75,1.03125 .1132.12379.2246.22274.3437.3125s.147.25.6563.25c-.0453,0-.0625-.05448 0,.0625 .0671.12574.125.39502.125.71875 0,.29575.0508.62543.2187.90625s.4519.45849.6876.5625c.5851.25833 1.1455.1865 1.8437,0 .4909-.13096.8354-.12278 1.0313-.0625 .0755.02324.1115.05174.125.0625 .0001.43375.1752.74695.1874.78125 .1447.42156.5676.68171 1.0092.62081s.7782-.42581.8034-.87081c.0091-.12736.0186-.22743.0312-.4375 .0432-.7194.062-1.75009.0625-3 .0009-2.49951-.0811-5.90363-.25-9.6875-.0669-1.49948-.1161-2.85989-.1563-4.15625-.0147-.42041-.3092-.77888-.7187-.875-1.065-.27286-2.1259-.51549-3.1563-.78125-.5005-.12079-1.0042.187-1.125.6875-.0212-.13094-.0766-.31478-.0937-.4375-.049-.37599-.3208-.68486-.6875-.78125-1.6119-.43464-3.2104-.87111-4.7812-1.3125-.1216-.0358-.2492-.04643-.375-.03125zm6.0624,3.28125c.1573.34007.1932.6031.2813.90625-.0694-.20221-.1592-.28899-.2187-.53125-.0392-.15911-.0326-.23716-.0626-.375zm193.9376,3.0625c-.0646.01412-.1275.03508-.1876.0625-1.9577.61686-3.8489,1.14018-5.6562,1.625-1.2552.33677-2.5159.6542-3.7812.96875-.3067.07206-.5563.29417-.6635.59046s-.0574.62667.1322.87829c1.1967,1.6491 2.1755,3.2282 2.7813,4.53125 .969,2.08422 3.3593,5.04403 5.4374,6.90625l3.3126,2.96875c.2261.20875.5407.29246.8407.22372s.5466-.28109.6593-.56747l1.0937-2.78125c1.7534-4.38561.3398-9.84774-3.0937-15-.1935-.28752-.5305-.44399-.875-.40625zm-174.375.125c-.2904.01344-.5579.16158-.7234.40061s-.21.54158-.1204.81814c1.5856,5.32036 3.6433,10.13112 5.9062,13.53125 1.4518,2.18154 2.9594,4.86748 3.3126,5.75 .2981.74526.6931,1.2583 1.1874,1.5625 .4478.27548 1.2469.31166 1.7188.03125 .5574-.33119.9241-.86144 1.2812-1.53125s.6794-1.51433.9376-2.53125c.6683-2.6324.3053-6.45689-1.125-13.65625-.074-.37236-.1471-.75028-.2188-1.125-.0764-.36062-.3582-.64234-.7188-.71875-3.7392-.79982-7.4463-1.64073-11.1562-2.5-.0916-.02466-.1864-.0352-.2812-.03125zm29.2187,5.78125-.4063.21875c-.4335-.07984-.8637.15481-1.0312.5625l-.2188.125 .0313.03125 .1563-.0625c-.0414.17635-.0306.36096.0312.53125 1.1747,3.66169 2.4113,7.12584 3.6562,9.5625 1.4676,2.87246 2.4231,4.54563 3.4688,5.75 1.0423,1.20069 2.1954,1.85905 3.9062,2.625 .931.41679 1.616.66473 2.3126.65625 .3196-.00389.6743-.09874.9687-.28125s.5056-.42726.6563-.65625c.3893-.59203.477-1.23178.5-2.21875 .0222-.96196-.039-2.18921-.2188-3.59375-.3518-2.74873-1.0898-6.29204-2.0938-10.28125-.0919-.3574-.386-.62696-.75-.6875-3.6691-.62597-7.4153-1.3158-11.2187-2.03125 .0815-.04319.2813-.15608.2813-.15625l-.0313-.03125c-.0037-.00739.0019-.02735 0-.03125 .0038.00819 0-.03125 0-.03125zm119.75.09375-.0937.03125c-3.855.68995-7.6881,1.28445-11.4063,1.8125-.3139.03778-.5873.23209-.7262.51615s-.1243.61916.0387.8901c2.742,4.70032 6.1131,9.69254 8.2812,11.75 1.0728,1.01789 1.9355,1.75947 2.625,2.3125s1.1646.93093 1.7813,1.09375c.2209.05833.5463.12095.875.03125s.553-.27836.7187-.4375c.43-.41302.6862-.93505 1.0313-1.59375 2.3242-4.43219 1.3454-10.08402-2.2813-15.96875-.1802-.28899-.5037-.45672-.8437-.4375zm-24.0313,3.4375c-4.0063.45561-7.8708.83826-11.5624,1.21875-.3065.02796-.5794.20536-.7294.47408s-.1577.59414-.0206.86967c2.5585,5.50536 4.8631,8.96579 7.3124,10.84375 1.1269.86388 2.0424,1.49663 2.8126,1.9375s1.3917.73441 2.125.6875c.6641-.04248 1.2629-.50943 1.6562-1.0625 .408-.5737.7564-1.32551 1.0938-2.3125 .6909-2.02268 1.0441-4.03661 1.0624-5.59375 .0093-.77719-.0408-1.39616-.25-1.96875-.1179-.32311-.3007-.5889-.4687-.75-.1531-.14677-.6109-.34375-.8437-.34375 .0237,0-.054-.01928-.1563-.1875-.1182-.19471-.1875-.44409-.1875-.78125 0-.43577-.1231-.74524-.2812-1.15625s-.382-.87181-.6563-1.375c-.1733-.33446-.5309-.53174-.9063-.5zm-69.8437,1.125c-.2689.01965-.5161.15476-.6779.37047s-.2222.49088-.1658.75453c.0852.44565.2531.97648.5937,1.625 .4145.78966.9727,1.66419 1.625,2.40625 1.184,1.34691 2.5991,3.27074 3.125,4.1875 .4276.74524 1.1469,1.25916 2.0937,1.84375s2.0812,1.08823 3.1876,1.4375c1.0654.33637 2.1076.66757 2.9374.90625 .4132.11881.7771.20206 1.0626.28125s.3817.14842.6562.1875c.2578.0368.3971-.03169.5-.0625 .0515-.01541.0919-.0176.125-.03125 .0165-.00682.0169-.02466.0312-.03125h.0313c.0047-.00232.0217-.02631.0313-.03125s.0937-.06247.0937-.0625c.0316-.02219.366-.30309.4687-.5625 .2147-.54069.1727-.9656.125-1.53125-.0954-1.13371-.5216-2.48771-1.2187-3.78125-.6088-1.1301-1.2439-2.92028-1.375-3.71875-.0551-.33498-.1404-.57703-.2813-.9375s-.3308-.77076-.5312-1.21875c-.1307-.3087-.4171-.52347-.75-.5625-3.6365-.41691-7.4512-.89032-11.5-1.46875-.0623-.0063-.1252-.0063-.1875,0zm40.25,2.15625c-.8445.12035-1.7032.27876-2.5.40625-1.8537.29659-4.4722.36853-7.6563.3125-.3201-.0082-.622.14844-.7996.41485s-.2061.60534-.0754.89765c.2847.65133.5543,1.30574.625,1.59375 .4001,1.62686 1.7105,3.79621 3.0313,5.25 1.1916,1.3116 2.7089,3.44203 3.3125,4.59375 .4588.87515 1.027,1.555 1.7812,1.9375 .7309.37071 1.5659.46492 2.5938.34375 .5842-.06888 1.0719-.14494 1.5312-.3125 .4481-.16347.8376-.4453 1.0938-.8125 .5517-.79081.5938-1.71818.5938-3.28125 0-.91733.0925-1.95524.25-2.8125 .1622-.88344.3614-1.54344.5312-1.8125 .3627-.57512.5087-1.3883.25-2-.29-.68664-.8201-1.14198-1.625-1.6875-.5245-.35543-1.0495-.84058-1.4062-1.25-.1677-.19242-.2513-.33653-.3438-.5-.1152-.20349-.0938-.15947-.0938-.1875l-.0312-.15625c-.0026-.01651.0019-.02086 0-.03125-.0038-.02079.004-.04249 0-.0625-.0081-.04002-.0208-.08059-.0312-.125-.1063-.47016-.5534-.78179-1.0313-.71875zm-26.6875,12.09375c-.1883.03023-.3628.11749-.5.25-.3614.32225-.5648.31558-.875.84375-.1551.26408-.1827.67803-.125.90625s.1451.36568.2188.53125c.0241.06582.0555.12872.0937.1875 .2297.30824.2536.36807.4063.5625 .0763.09721.2332.2456.3437.3125s.1715.08567.25.125c.2502.12334.5424.12819.7965.01323s.4435-.33766.516-.60698c.0749-.25943.1401-.37667.0625-.25-.0388.06333-.1048.36229-.6875.40625-.2913.02198-.5885-.11843-.7188-.25s-.1607-.2477-.1874-.3125-.0569-.10124-.0626-.125c0,0 1.8438-.37497 1.8438-.375-.0027-.06013-.0055-.18164 0-.5 .004-.09479-.0066-.18963-.0312-.28125-.0181-.06128-.0281-.04236-.0313,0s-.0012.10205.0313-.09375c.0162-.0979.0395-.29273-.0313-.5s-.2163-.35149-.3125-.4375c-.1924-.17202-.2823-.23297-.4375-.3125-.1731-.08923-.3698-.12202-.5625-.09375zm-2.7812,151.5c-1.581.81105-.1681-.70074-1.5313,1.03125-.4022.55262-.8109,1.31003-1.2187,2.25-.5546,1.27883-.8876,2.36773-.875,3.65625 .0128,1.30235.3477,2.75824.9374,4.96875 .1489.55803.2929,1.15232.4376,1.75 .0919.3574.386.62696.75.6875 3.0761.48566 5.797.90951 8.75,1.375 .3414.05741.6864-.07904.8962-.35438s.2498-.64424.1038-.95812c-.2203-.46856-.421-.88321-.625-1.375-1.8782-4.52376-3.3179-7.6726-4.4376-9.75-.5615-1.04177-1.0319-1.82092-1.5312-2.375-.4805-.53349-.9756-.92857-1.6562-.90625zm-28.9688,1c-.6557.0533-1.3105.31513-1.9375.71875-1.0305.66344-1.5158,1.90617-1.6563,3.5-.1356,1.53655.0687,3.43175.4688,5.5 .0837.42192.4452.73179.875.75 2.7668.10083 5.569.2677 8.375.46875 .352.02329.687-.15409.8656-.45832s.1701-.68319-.0218-.97918c-1.3698-2.16827-2.5965-4.55697-2.8438-5.5625-.3086-1.25537-.8197-2.24271-1.5312-2.9375-.7025-.68595-1.6374-1.07774-2.5938-1zm-29.9375.1875c-.8854.07716-1.6823.55713-2.5,1.3125-.7568.69907-1.2637,1.50836-1.4375,2.4375-.177.94659-.0586,1.98706.25,3.5 .2162,1.06057.4522,2.04391.6875,3 .1035.44433.5134.74846.9687.71875 2.6028-.21292 5.2536-.39383 7.9063-.53125 .3252-.01817.6173-.20473.7706-.49213s.1455-.63393-.0206-.91412c-1.3839-2.29822-2.6936-4.40229-3.6563-5.90625-.5206-.81355-.9829-1.46523-1.3124-1.9375-.1568-.22452-.2636-.4135-.4063-.59375-.1577-.19926-.2202-.25831-.4063-.375-.1052-.06641-.5818-.24155-.8437-.21875zm87.4375,1.71875c-.8152,0-1.5745.51613-2.0312,1.1875-.4718.69354-.7623,1.62526-.9376,2.78125-.3478,2.29485-.196,5.42405.5,9.15625 .1351.72451.2653,1.43557.375,2.09375 .0696.38171.3683.68042.75.75l8.9063,1.40625c.3302.05748.6658-.06666.8791-.32517s.2714-.6116.1522-.92483c-1.7632-4.62382-3.4279-8.54766-4.8126-11.3125-.7221-1.44186-1.3913-2.56848-1.9687-3.375-.2773-.3872-.464-.68932-.7813-.96875-.2825-.24903-.4982-.46875-1.0312-.46875zm-114.5938,1.28125c-.5153-.006-.9724.15026-1.4062.34375-.4469.19941-.9491.37506-1.3438.46875-.1622.03853-.341.04607-.5312.0625-.2192.01891-.2183.03135-.2188.03125-.3893-.08416-.5456-.07784-.9062.09375-.0123.00586-.0185-.00626-.0312,0l-.1563.09375-.2187.1875-.125.28125-.0626.21875c0,.00016-.0005.04927 0,.09375s-.0017.07934 0,.09375c.0036.02882.0314.03161.0313.03125 .0118.15315.0311.26108.0625.40625 .0412.19057.0831.44084.1562.71875 .1463.55599.3415,1.26835.5938,2.09375 .4847,1.58574 1.1557,3.57584 1.8438,5.59375 .1563.42006.5894.66944 1.0312.59375 2.6865-.48301 5.427-.90086 8.1875-1.3125 .3139-.03778.5873-.23209.7262-.51615s.1243-.61916-.0387-.8901c-.8242-1.37705-1.611-2.66301-1.875-3.1875-.8751-1.73928-1.7878-3.0694-2.7188-4s-1.9394-1.48764-3-1.5zm-26.7812,2.71875c-1.03.45278-.8738.29652-1.4375.90625-.1815.20422-.3732.56613-.3437.96875 .013.17899.1208.26669.1874.40625-.1062,1.30803.0096,3.23736.2813,6.5625 .1503,1.8383.3955,3.39216.6563,4.8125 .0427.25877.1925.48758.4125.6303s.49.18619.7437.1197c2.6609-.72767 5.3902-1.45202 8.1562-2.125 .2874-.06743.5259-.26701.643-.53804s.0988-.5815-.0492-.83696c-.5421-.95951-1.0852-1.91056-1.5625-2.875-1.0739-2.16924-2.4324-4.12072-3.75-5.5625-.6647-.72718-1.3118-1.32697-1.9375-1.75s-1.2057-.71876-1.9062-.71875h-.0938zm170.2188.0625c-.8124.09663-1.6029.60907-2.25,1.4375-.2321.297-.2708.52136-.375.84375s-.2009.71014-.2813,1.15625c-.1579.87586-.2865,1.95167-.375,3.21875-.1716,2.45648-.2183,5.58075-.1563,8.75 .0213.43949.347.80425.7813.875 3.4731.55949 7.0304,1.14517 10.3437,1.6875 .3302.05748.6658-.06666.8791-.32517s.2714-.6116.1522-.92483c-.1586-.41413-.343-.80003-.5-1.15625-4.0318-9.13857-4.51-10.32349-5.2187-12.90625-.2379-.86637-.6431-1.5356-1.1563-2-.4686-.42407-1.173-.73605-1.8437-.65625zm-192.25,3.9375c-.5845,0-1.0374.0209-1.4063.0625-.2021.02279-.3885.05897-.5313.09375-.0393.00959-.0904.05505-.125.0625h-.0312c-.0874.01909-.1716.05067-.25.09375-.0285.01696-.0281.00811-.0625.03125-.0002.01042-.0002.02083 0,.03125h-.0625c-.0002.01042-.0002.02083 0,.03125h-.0312c-.0002.01042-.0002.02083 0,.03125l-.0313.03125h-.0313l-.0312.0625-.0312.03125-.0313.03125c-.0002.01042-.0002.02083 0,.03125l-.0313.0625-.0312.03125-.0312.0625c-.0897.20771-.1008.44095-.0313.65625 .1056.295.1602.32257.25.4375s.211.23953.3437.375c.2257.23038.521.74292.7188,1.375 .1945.62152.2812,1.33731.2812,2 0,3.35382 1.0626,6.95312 2.9376,10.4375 .2172.40167.6935.58687 1.125.4375 2.3596-.82062 4.782-1.67895 7.25-2.46875 .2707-.08969.4855-.29837.583-.56641s.0669-.56594-.083-.80859c-.45-.72733-.8731-1.45818-1.3126-2.21875-2.6677-4.61313-4.2059-7.13046-5.4687-8.59375-.623-.72192-1.1923-1.21558-1.8437-1.5s-1.319-.34376-2-.34375zm217.75.5c-.5478.17419-.6929.41501-1,.8125s-.5895.89153-1,1.53125c-.6707,1.04475-1.164,2.2897-1.4376,4.25-.2666,1.91092-.3773,4.56638-.4374,8.5 .0067.45137.3357.83313.7812.90625 3.7532.63489 7.3922,1.25843 10.9062,1.875 .292.05366.5921-.03494.8081-.2386s.3221-.49801.2857-.79265c-.4155-2.94506-1.2953-5.09554-2.9688-7.125-.7003-.84958-1.3638-1.78711-1.8124-2.625-.4582-.85551-.6563-1.55021-.6563-1.875 0-1.2676-.6302-2.74821-1.4375-3.875-.3019-.42138-.4699-.72826-.8125-1.03125-.126-.11139-.2711-.22579-.5313-.3125s-.5932-.02997-.6874,0zm24.8437,4.5v.09375c-.1032-.00061-.2464-.07894-.3125-.0625-.1919.04774-.3095.09674-.4062.15625-.1935.11902-.314.26464-.4688.40625-.3096.28322-.6254.6179-.875.90625-.1248.14417-.2274.26447-.3125.375-.0425.05526-.0823.09019-.125.15625-.0214.03303-.0548.07115-.0937.15625-.0195.04255-.0377.08671-.0626.21875-.0062.03301-.0312.12449-.0312.125l.0312.1875 .0626.25 .0624.09375c-.2139.51479-.4556.89644-.6562,1.53125-.8132,2.5736-1.5631,6.08555-2.0625,10-.0593.49792.2859.95354.7813,1.03125 3.3116.61512 6.4844,1.20614 9.5624,1.8125 .2907.06283.594-.01685.8163-.21446s.337-.48944.3087-.78554c-.1694-1.59726-.3958-3.09609-.6562-4.28125-.1446-.65764-.2922-1.24375-.4688-1.71875-.1765-.475-.3517-.84415-.6562-1.1875-.7387-.83318-1.7299-3.26084-2.0312-5.15625-.1684-1.05921-.4474-1.96738-.8126-2.6875-.1775-.34984-.3534-.6586-.625-.9375-.1028-.10558-.2972-.10796-.4062-.1875l.0312-.0625c-.0897-.07564-.1547-.02658-.25-.0625-.1209-.04537-.1437-.15625-.3437-.15625zm-261.25,1.46875c-.2936.00239-.99.45513-.75.34375-.2841.03266-.5376.19393-.6875.4375-.1042.18101-.123.26024-.1562.3125-.111.16593-.1658.3631-.1563.5625-.0071-.1165-.0131-.12125 0,.0625s.1999.61688.4687.78125c.3246.19847.5549.26916.9688.28125 .2536.0074.4167-.01972.5625-.03125 .1284.24598.0775.39864.0625.4375-.0376.09719-.1093.21277-.1562.28125-.0251.03658-.012.06431-.0313.09375l.0937-.09375 .5938.71875 .0938-.9375 .2187.0625 .4375.3125 .0938.15625 .0624.28125 .0313.0625-.0313.25c.0001-.0002-.0219.13273-.0312.15625s-.0272.02236-.0312.03125l-.8438-.375h-.0625l-.75-.40625c-.0673.12825-.064.27608-.125.40625l.4687.03125h-.4687c-1.7536,3.77529-.9607,8.32969 1.6875,12.65625 .2494.38205.7386.5275 1.1562.34375 2.2833-.96789 4.6962-1.89484 7.1876-2.875 .2746-.10531.4834-.33398.5633-.61696s.0217-.58711-.1571-.82054c-1.1746-1.54436-2.1886-3.09382-2.9062-4.5625-1.1662-2.38744-2.429-4.37376-3.625-5.8125-1.2074-1.45228-2.2403-2.38056-3.4688-2.53125-.1521-.01863-.2945-.0011-.3125,0zm282.8125,2.8125c-.9625.48529-.8019.10518-1.4375.75-.2552.53417-.3501,1.00185-.3437,1.0625-.2095.61549-.3438,1.29953-.3438,2 0,.61213-.0654,1.25987-.2188,1.71875-.1764.52812-.3373.74112-.5.84375-.8464.53389-1.2501,1.53341-.875,2.53125 .0454.12071.0245.08493.0313.15625 .004.04169.0054.19001 0,.40625-.0084.33888-.0646.84127-.125,1.40625-.111,1.03725-.286,2.39208-.5313,3.90625-.0809.48892.2349.95565.7188,1.0625 2.8445.62232 5.5555,1.24659 8.1875,1.875 .2895.07241.5962.00185.8249-.1898s.352-.48123.3314-.77895c-.1642-2.21604-.4937-4.19399-1.2188-5.625-.3965-.78264-.7198-1.76133-.9062-2.6875s-.2301-1.74869-.125-2.21875c.3013-1.34826-.0767-2.7952-.6876-3.96875-.3086-.59276-.6751-1.10605-1.0937-1.5s-.8533-.71448-1.5-.75c-.0623-.0063-.1252-.0063-.1875,0zm-296.625,1.875c-.7879.43867-.6405.04143-.9062.8125 .4403,1.38701-1.2588-1.09078.1874.9375l.0313.09375c.006.05288.0164.10516.0313.15625 .0991.26399.1255.62309.0312,1-.1017.40614-.3091.81724-.5312,1.0625s-.2928.59397-.1899.90925 .3657.55213.6899.622c.0094.04498.0123.0738.0312.1875 .0825.49466.0436,1.53525-.125,3.0625-.379,3.43195.016,5.5111 1.6562,8.21875 .2535.41834.5971.89483.9688,1.375 .2677.35948.7533.47761 1.1562.28125 1.5956-.78084 3.2563-1.59738 5-2.40625 .2361-.11177.4144-.31743.4917-.56694s.0462-.51997-.0854-.74556c-.6262-1.10482-1.1867-2.1708-1.5625-3.25-.7445-2.13985-2.1172-5.02305-3.4375-7.40625-.6654-1.20099-1.3695-2.29283-1.9063-3.0625-.2645-.37958-.4472-.65094-.6874-.90625-.0541-.0573-.0599-.09099-.0626-.09375-.202-.21093-.4911-.31503-.7812-.28125zm317.5625,2.3125c-.8813.03029-2.2658.84835-1.75.9375-.5169.55547-.9352,1.26435-1.375,2.09375-.8944,1.6858-1.7021,3.86927-1.9375,5.90625-.1706,1.47668-.6392,3.72051-1.25,6.1875-.1229.49095.1684.99026.6562,1.125 2.5663.71004 4.9956,1.41942 7.3438,2.15625 .2923.0949.6127.03962.8563-.14777s.3792-.48283.3625-.78973c-.2307-2.99368-.5294-5.79853-1.1563-7.34375-.4577-1.12779-.6974-1.93572-.7187-2.625s.1259-1.28658.5-2c.4051-.77251.6762-1.17553.6874-1.84375 .0046-.2661-.1459-.683-.375-.875-.0352-.02966-.1784-.12768-.3437-.1875-.1441-.05215-.2788-.08979-.4063-.09375 .4898-.8084.1351-1.82168-.5937-2.28125l-.0313-.03125c-.0051-.0037-.0322-.01179-.0624-.03125-.0152-.00973-.0623-.06236-.0626-.0625l-.125-.03125-.2187-.0625zm-331.6563,2.59375c-.2513.02297-.6724.15609-.9062.59375s-.0931.80798 0,1c.1863.38404.3811.52461.5625.6875l.0937.09375c.3295.22627.45.36586.625.5625 .1751.19664.5316.55041 1.0313.65625 .461.08893.9162-.17885 1.0625-.625-.0112.03352.0468-.10017.0625-.28125s.0059-.33601-.0313-.46875c-.0964-.34497-.2627-.68334-.5312-1.03125-.4576-.59289-1.0195-.98519-1.625-1.15625-.1117-.03173-.2283-.04233-.3438-.03125zm345.5938,3.3125c-.6733.29533-.4429.49866-.9688.75-.2539-.05792-1.1664,3.45338-.5937,1.28125-.4758,1.23482-1.0496,3.16737-1.9687,6.21875-.57,1.89229-1.2273,3.73502-1.9063,5.53125-.0918.23591-.0838.49903.0223.72889s.3011.40669.5402.48986c1.8823.68648 3.6424,1.40399 5.375,2.125 .2741.11194.5851.08703.8379-.06711s.4173-.4192.4433-.71414c.2797-2.54815.2764-4.80212-.375-6.40625-.457-1.12611-.6593-1.88348-.625-2.625 .0348-.75031.2993-1.51006.875-2.6875 .6163-1.26086.972-1.97176 1-2.78125 .0125-.36147-.1506-.80521-.3437-1.03125-.2507-.29302-.519-.45422-.875-.59375-.4611-.1806-.8343-.30416-1.3437-.21875h-.0938zm-343.0312,1.15625c-.4523.05917-.9414.37677-1.2813.78125-.358.42592-.6473.99228-.9063,1.6875-.6817,1.83021-1.0255,3.01341-.75,4.4375 .2781,1.43702 1.0909,2.99656 2.6876,5.84375 .4781.85243 1.0757,1.71208 1.6562,2.5625 .276.41056.8247.53401 1.25.28125 1.4612-.82774 3.0486-1.7525 4.8125-2.6875 .2388-.12733.4105-.35216.4705-.61608s.0023-.54087-.158-.75892c-1.9107-2.52728-3.612-5.38419-4.0312-6.8125-.4368-1.48765-.9183-2.66825-1.5313-3.5-.6037-.81934-1.3683-1.33001-2.2187-1.21875zm356.375,5.53125c-.2955.02326-.5624.18568-.7188.4375-.0406.065-.1081.13618-.1562.21875s-.0584.11641-.125.25c-.0571.11707-.0891.24482-.0938.375-.0019.01095.0011.02028 0,.03125-.2592.64174-.6006,1.47625-.9688,2.5-.7695,2.14035-1.6815,4.9791-2.6562,8-.1426.44186-.2727.79567-.4062,1.1875-.1627.44857.0396.94756.4687,1.15625 1.3893.69864 2.7643,1.42241 4.125,2.15625 .2734.14978.6036.15301.8798.00859s.4621-.41736.4952-.72734c.2182-1.90709.3643-4.06726.4063-6.78125 .0369-2.39946.0229-4.50679-.0626-6.0625-.0382-.69647-.1245-1.21595-.1874-1.65625-.0007.00481-.019-.13699-.0313-.21875-.0009-.03857.0054-.05887 0-.09375-.0764-.46935-.4938-.80599-.9687-.78125zm-363.0938,1.9375c-.3519.03379-.6544.26373-.7812.59375-.0624.16515-.1479.43329-.2188.625l-.0312.03125c-.0031.00817.0029.02335 0,.03125-.079.11199-.1324.24003-.1563.375-.1224.74545-.1928,1.71428-.125,2.78125 .1376,2.16451.6088,4.64618 1.4375,6.28125 .2457.48495.562.95556.875,1.40625 .1387.20995.3563.35493.6035.40201s.5029-.00774.709-.15201c.7752-.51769 1.8105-1.13111 3.0937-1.90625 .2242-.13345.3822-.35474.4357-.61011s-.0025-.52147-.1544-.73364c-1.371-1.91033-2.526-3.90135-2.9375-5.0625-.3682-1.03912-.7765-2.00366-1.1875-2.71875-.2183-.37985-.4419-.69532-.625-.90625-.0664-.07646-.1024-.10981-.1875-.1875-.0426-.03885-.1184-.08588-.2812-.15625s-.2914-.11173-.125-.0625c-.1117-.03173-.2283-.04233-.3438-.03125zm-4.3125,5.25c-.4579.05924-.8034.44466-.8125.90625-.0114.27939-.0228.4736-.0312.875-.0564,2.69762.8209,5.55316 2.3437,8.28125 .1458.25094.4002.41967.6881.45642s.5764-.06266.7806-.26892c.3744-.38748.7843-.75122 1.1876-1.125 .327-.29317.4051-.7748.1874-1.15625-1.3597-2.27845-2.5608-4.81501-3.1562-6.8125-.0705-.23665-.133-.32597-.1875-.5-.1306-.43192-.5518-.70832-1-.65625zm375.5937.40625c-.3117-.15333-1.7521,1.27744-1,.59375l.375.40625c-.0858.00916-.17.03019-.25.0625 0,1e-005 .1674-.02628.3126-.03125l.2187.21875 .5937.34375 .2188.125c-.0033.00546-.0166.03611-.0938.125h-.0312c.0002.01042.0002.02083 0,.03125-.0167.01808-.0306.03503-.0625.0625l-.0937.0625-.1563.09375-.3437.0625-.4376-.125-.3437-.28125-.0937-.25c.0001.00038-.057-.11416-.0626-.15625-.0037-.02806.0011-.04161 0-.0625l.0313-.03125h-.0313c-.0011-.05458-.0028-.09874 0-.125-.0146.04009-.044.04631-.0624.09375s-.0108.10605-.0313.15625c-.009.02196-.0234.04365-.0313.0625l-.0312.03125c-.003.00704.0026.02511 0,.03125-.0131.03068-.0223.07462 0,.03125l-.0625.0625c-.4125.99974-.8253,2.42893-1.2813,4.40625-.3432,1.48813-.8232,3.00273-1.3437,4.46875-.108.29414-.0611.62287.125.875l.0313.03125 .0312.0625c.0297.02215.0208.00697.0625.03125l.0937.0625h.0313l.0313.0625c.8447.4913 1.6853.97812 2.5,1.46875 .2445.13676.5375.15636.798.05337s.4609-.31766.5457-.58462c.7701-2.49042 1.2813-5.0794 1.2813-7.65625 0-1.39374-.0916-2.47205-.2188-3.25-.0644-.39383-.1337-.69377-.25-.96875-.0342-.08124-.0745-.18398-.1562-.28125-.1892-.25533-.4955-.39668-.8126-.375zm-.9062,1.0625c-.0783.03157-.1519.07362-.2188.125 0,5e-005 .179-.10572.2188-.125zm7.0938,3.40625c-.3636.02217-.681.25408-.8126.59375l-.5937,1.46875c-.0007.02083-.0007.04167 0,.0625l-.0313.03125c-.0007.02083-.0007.04167 0,.0625-.0002.01042-.0002.02083 0,.03125l-.0312.0625c-.9152,2.35793-1.982,4.66814-3.1562,6.875-.227.42588-.0915.95458.3124,1.21875l2.125,1.34375c.2385.15106.5325.18594.7997.09485s.4788-.29833.5753-.5636c.8426-2.35839 1.4182-4.82107 1.5938-7.3125l.2188-2.96875c.0205-.27098-.0782-.53743-.2704-.72959s-.4586-.29092-.7296-.27041zm-384.75,2.375c-.508.06241-.8707.52272-.8126,1.03125 .1084,1.2103.6589,2.95333 1.4376,4.34375 .2724.48657.454.81267.625,1.1875 .1315.29202.4037.49612.7208.54052s.635-.07709.8416-.32177c.2547-.31339.463-.60614.6563-.84375 .2508-.29956.2882-.72368.0937-1.0625-.2082-.37113-.4042-.72362-.5937-1.09375-.6128-1.19584-1.1983-2.14148-1.6563-2.8125-.1833-.26871-.3127-.43973-.4687-.625-.2023-.25355-.5218-.38373-.8437-.34375zm387.5624,2.84375c-.2144.02579-.4132.1252-.5624.28125-.4202.43602-.7206,1.00205-1.0313,1.78125s-.5403,1.6814-.7187,2.53125c-.1094.52058-.1082.73516-.125.90625-.0438.44269.2313.85463.657.98385s.8833-.06029 1.093-.4526c.4226-.77105.9215-1.96904 1.4062-3.65625 .1631-.56788.2689-.97304.3125-1.34375 .0319-.2821-.0664-.56338-.2672-.76412s-.482-.29907-.7641-.26713zm-220.5312.53125c-.4821.04595-.8487.45329-.8438.9375-.0163,1.62419.1531,3.17966.5313,4.625 .4806,1.83629.802,2.89753 1.4687,3.65625 .2845.32372.7373.58279 1.1563.65625 .4632.08119.8898.03309 1.4063-.0625 .5452-.10092 1.1145-.10225 1.5312-.03125 .4499.07664.5163.14241.5625.21875 .3542.58509.7767.66064 1.2187.75 .4233.0856.9378.10198 1.4376-.09375 .3591-.14062.7541-.42288 1.0312-.78125 .3287-.42523.4926-.88941.7188-1.5625 .446-1.32828.9111-3.48186 1.5312-7.03125 .0467-.26406-.0225-.53545-.19-.74484s-.4171-.33653-.685-.34891c-3.4566-.09127-7.0648-.16597-10.7812-.1875h-.0938zm-12.2188.03125c-3.5647.05559-7.1549.19004-10.7187.3125-.2904.01347-.5579.16163-.7234.40065s-.2099.54155-.1203.8181c.7076,2.18051 1.5103,4.32596 2.4687,5.46875 .4983.59396 1.0904,1.05293 1.6563,1.34375 .5611.28841 1.1074.5141 1.7812.25 .1297-.05081.2422-.05765.4375.0625 .2164.13325.423.33699.5313.625 .2359.6275.7007,1.06797 1.2187,1.40625s1.1096.59373 1.7813.59375 1.3112-.21334 2-.5 1.3702-.6676 1.9687-1.0625c.6058-.39969 1.0435-.71843 1.375-1.21875 .1781-.2726.201-.61836.0605-.91209s-.424-.49291-.748-.52541h-.0938c-.0072-.01272-.0621-.09414-.1562-.25-.1863-.30852-.4108-.78756-.625-1.40625-.4049-1.17052-.8244-2.85918-1.1875-4.65625-.0863-.4331-.4647-.7462-.9063-.75zm35.7188.6875c-.3847.05348-.6959.33984-.7812.71875-.4958,2.14496-.8096,4.1343-.8126,5.84375-.0023,1.37003.1748,2.37312.8126,3.1875 .6504.83078 1.6205,1.39325 3.2187,2.0625 1.0104.42308 1.9377.7734 2.5937,1.0625 .2703.11905.4679.24002.6876.34375 .2634.12262.5688.11547.8261-.01933s.4372-.38185.4863-.66817c-.025.163.0364.04858.0626-.1875 .0431-.38417.0813-.91139.125-1.5 .068-.92339 1.0065-2.65227 2.0624-3.65625 1.0034-.95397 2.0319-2.78074 3.0938-4.8125 .1488-.26881.1556-.59367.0182-.86848s-.4014-.46428-.7057-.50652c-2.1101-.25189-4.0776-.45939-5.6563-.59375-1.8067-.15377-3.7982-.28251-5.8437-.40625-.0623-.0063-.1252-.0063-.1875,0zm-59.4375.1875c-3.6738.21897-7.244.51167-10.6875.8125-.3065.02796-.5794.20536-.7294.47408s-.1577.59414-.0206.86967c.9762,1.96052 2.3169,3.79395 4.125,5.5625 1.1886,1.16251 2.4221,2.30639 3.4688,3.1875 .5178.43593.9677.79441 1.375,1.09375 .2059.15129.4025.27095.5624.375s.2571.19436.4688.28125c1.1965.49125 2.3533.57435 3.375.28125 1.0119-.29028 1.9019-.98006 2.5312-2 .4511-.73098.6236-1.68473.375-2.625-.2573-.97418-.8575-2.01061-1.8124-3.5-.7975-1.24342-1.4664-2.70972-2.0938-4.21875-.1479-.3826-.5284-.62361-.9375-.59375zm-21.4063,1.9375c-3.1194.39718-6.0467.85298-8.7187,1.34375-.2882.05291-.5653.11498-.7813.15625-.2807.05727-.5194.24037-.6475.49657s-.1313.55705-.0087.81593c1.736,3.5541 3.8421,6.27507 6.1875,7.0625 .7789.26157 1.5168.58038 2.125.875 .2931.142.562.2874.75.40625 .2536.16025.2182.13226.2813.21875 .1625.22416.2705.31045.4687.46875s.4554.33044.75.5c.5624.32374 1.2418.64251 1.9375.90625 1.5033.57009 2.7321.72294 3.7188.5 .9669-.21851 1.6972-1.01712 1.875-1.90625 .1919-.95985-.0484-2.01537-.625-3.1875s-1.5261-2.46755-2.8438-3.8125c-1.3994-1.42815-2.5657-2.87769-3.5625-4.40625-.1907-.31036-.5447-.48124-.9063-.4375zm-109.4374.1875c-.292.04062-.5476.21699-.6893.47559s-.1525.56897-.0295.83691c.0891.1989.1851.45138.3125.71875 .1399.29704.4257.4986.7525.53064s.6463-.11017.8412-.37439c.0964-.1307.132-.19699.125-.1875 .2671-.35945.2409-.85802-.0624-1.1875-.1332-.14535-.2586-.29052-.4063-.46875-.2023-.25355-.5218-.38373-.8437-.34375zm214.3124.375c-.3713.02743-.6907.27314-.8124.625-1.1828,3.40498-1.9447,6.35719-2.125,8.46875-.093,1.08931-.0644,1.89217.25,2.59375 .1399.31212.3651.6471.7812.8125 .2551.10148.7966.09749 1.125-.03125 .3513-.13757.5025-.14586.5938-.125 .0073.35205.0469.66961.2187.9375 .1301.20372.648.53892 1.0313.53125 .4253-.00848.7115-.13875 1.125-.3125s.9002-.42238 1.5-.75c.5681-.31031 1.0859-.68366 1.5-1.15625 .2075-.23684.3752-.47764.5-.71875s.2499-.45788.25-.84375c0-.01944-.0334.08692.0312-.09375 .0741-.20743.1296-.32317.1562-.375 .1401-.27301.3654-.63871.6563-1.0625 .5624-.8186 1.3677-1.8249 2.25-2.78125 .7556-.81893 1.4137-1.72892 2.0313-2.71875 .1615-.26195.1834-.58674.0584-.86796s-.3807-.48264-.6834-.53829c-3.5981-.56154-7.0319-1.12451-10.25-1.59375-.0624-.00631-.1252-.00631-.1876,0zm-123.3437,2.8125-.0937.03125c-3.3281.80135-6.5722,1.67963-9.7813,2.625-.3261.08055-.5836.33028-.6742.65373s-.0001.6706.2367.90877c1.2606,1.32635 2.8215,2.66614 4.3438,3.75 .8275.58918 1.6106,1.10205 2.3437,1.46875s1.3005.625 2,.625c.1891,0 .5562.10831 1.0313.375 .4544.25518.9361.61618 1.3124,1 .495.50524 1.0776.87508 1.7188,1.09375s1.2676.30054 1.875.0625c.6995-.27406 1.9485-.53124 2.5938-.53125 .3777,0 .7058-.03298 1.0312-.15625 .3341-.12652.6429-.5167.7188-.65625 .3732-.68516.1931-1.26847-.1563-2-.6816-1.4265-2.2434-3.28145-4.75-5.78125-1.1343-1.13122-2.0827-2.17818-2.9375-3.15625-.2026-.23198-.5067-.34893-.8125-.3125zm146.8125.90625c-.2901.03965-.5446.21323-.6875.46875-.4467.76164-.8767,1.52717-1.4063,2.3125-1.5499,2.29907-2.4426,4.26445-2.5312,5.96875-.0432.82989.12,1.62751.5312,2.28125s1.0497,1.13869 1.8126,1.4375c1.3949.54628 2.8121.53336 3.9374.0625 1.1134-.4658 1.9728-1.48456 2.1563-2.75 .0791-.5458.2171-1.04995.375-1.34375 .0722-.13429.1231-.1913.2187-.28125 1.085-.0245 1.9446-.69908 3-1.65625 .9627-.87314 2.0131-2.05261 3.0313-3.40625 .1903-.26035.2325-.60053.1116-.8995s-.3876-.51425-.7053-.56925c-3.2247-.5466-6.4198-1.07583-9.5626-1.59375-.0916-.02466-.1864-.0352-.2812-.03125zm-161.625,3.3125c-.0645.01413-.1274.03508-.1875.0625-2.6561.85648-5.2309,1.70232-7.75,2.625-.3194.10581-.5569.37547-.6217.70561s.0534.66956.3092.88814c1.3693,1.1869 3.122,2.24426 5.875,3.71875 2.2365,1.19788 4.6877,1.93885 6.6562,2.09375 .9843.07746 1.803.00379 2.5-.25 .3507-.12765.6342-.25111.9063-.5625 .2237-.25607.4062-.66481.4063-1.0625-.0032-.17818-.0575-.3517-.1563-.5l-.0313-.03125c-.0025-.00414.007-.02013 0-.03125l-.0312-.03125-.0312-.03125-.0313-.03125-.0313-.03125c-.0782-.12187-.1398-.23543-.25-.375-.2954-.37455-.6899-.84065-1.1874-1.375-.9958-1.06942-2.3855-2.45422-3.875-3.84375-.6125-.57121-1.1726-1.10884-1.7188-1.65625-.1949-.20184-.4704-.30514-.75-.28125zm182.5625.21875c-.2727.04155-.513.20175-.6563.4375-1.0749,1.71609-2.1504,3.54413-2.9062,5.15625l-2.4688,5.28125c-.1226.25889-.1194.55976.0087.81596s.3669.43929.6476.49654l2.2187.46875c.7626.16698 1.5714.26141 2.3126.21875s1.2874-.13417 1.8124-.53125c.2186-.16545.4758-.25751.6563-.28125 .0664-.00874.1547.00451.2187.03125 .2997.12217.6413.08018.9025-.11092s.4045-.50398.3788-.82658c-.0196-.32385-.0878-.6762-.2187-1.1875-.1771-.69113-.167-1.02917-.0938-1.1875-.0042.00917.0762-.08524.0938-.09375 .0547-.0266.1694-.0625.375-.0625 .6172,0 1.156-.21815 1.7812-.53125s1.297-.74384 2-1.28125c1.2622-.96498 2.5543-2.24374 3.6562-3.53125 .2053-.25653.2604-.60217.145-.90981s-.3841-.53185-.7074-.59019c-3.2846-.58369-6.5029-1.16332-9.875-1.75-.0916-.02467-.1865-.03521-.2813-.03125zm21.375,3.78125c-.2033.03252-.3901.13141-.5313.28125-1.0021,1.0009-2.025,1.99767-3.0312,2.875-2.9343,2.55853-4.5318,4.03941-5.2188,5.28125-.1744.31511-.2708.67235-.2812.90625-.0196.43553.0749.6264.3125.90625 .479.56409.9876.6265 1.7187.78125 .6933.14676 1.3528-.00165 2-.3125 .6436-.30903 1.1815-.79842 1.5938-1.375 .5532-.77329 2.1097-1.49998 3.25-1.5 1.5796,0 3.8913-.71175 5.5625-1.59375 1.172-.61856 2.466-1.77886 3.75-3.09375 .2369-.24254.3235-.5946.2261-.91937s-.3635-.57105-.6948-.64313c-2.7393-.51518-5.3871-1.0162-8.375-1.5625-.0916-.02467-.1865-.03521-.2813-.03125zm-219.7813,1.78125c-.0964.00614-.1913.02722-.2812.0625-2.2855.95608-4.4209,1.94436-6.4688,2.90625-.2876.13781-.4849.4131-.5229.72978s.0886.6308.3355.83272c2.65,2.13894 5.7644,3.80159 8.8124,4.46875 1.3581.29722 2.7156.6671 3.8126,1.03125 .5441.18063 1.0322.37079 1.4062.53125 .3842.16484.5844.28764.6875.375 .4767.40379 1.1055.62538 1.6875.5s1.0734-.49942 1.5312-1.0625c.2893-.35575.5111-.70235.625-1.09375 .0948-.32586.098-.80792-.0624-1.21875-.335-.85711-1.0311-1.46187-2.1876-2.5-.7855-.70512-1.6332-1.36003-2.375-1.84375-.3623-.23634-.6836-.44135-1-.59375-.1467-.0707-.2818-.11005-.4062-.15625s-.1901-.11688-.4688-.125c-.4223-.01238-1.0913-.26396-1.9062-.75-.768-.45816-1.6176-1.11068-2.5-1.875-.1983-.17051-.4591-.24988-.7188-.21875zm22.9688,1.5 .0938.03125c-.0624-.00631-.1252-.00631-.1876,0 .0473-.00916.0938-.03125.0938-.03125zm214.7812.09375c-.2144.02579-.4132.1252-.5624.28125-.6811.69018-1.3706,1.39307-2.125,2.125-2.1298,2.06649-4.0652,4.03809-5.4688,5.5625-.705.76566-1.2582,1.41194-1.6562,1.90625-.2131.26454-.367.50101-.4688.65625-.0134.01816-.0192.01161-.0312.03125-.1798.27717-.1995.62878-.0517.92427s.4408.49074.7704.51323c.0919.01284.3236.00813.4687-.03125 .54-.14633 1.0753-.44657 1.7188-.875 .5057-.3368 1.5222-.78157 2.7188-1.15625 1.1879-.37198 2.5263-.69362 3.7187-.875 1.8814-.28613 3.3454-.70885 4.8125-1.625 1.4334-.8951 2.9031-2.23089 4.875-4.28125 .2374-.2469.3203-.60411.2159-.93034s-.3793-.56895-.7159-.63216c-2.4451-.48964-4.8296-.96647-7.9375-1.5625-.0916-.02467-.1865-.03521-.2813-.03125zm-247.6874,3c-.1089.01263-.2147.04436-.3126.09375-2.0474,1.0319-3.8876,2.0366-5.5937,3.03125-.2818.16353-.4578.46231-.4642.78807s.1577.63121.4329.80568c3.1836,2.10582 6.5525,3.73279 9.0626,3.75 1.1127.00769 2.7284.44872 3.375.875 .9684.63881 1.8054,1.01054 2.625,1.0625 .7729.049 1.5354-.27006 1.9062-.8125 .3847-.56311.402-1.32975.125-2.09375-.2831-.78059-.8575-1.557-1.7188-2.34375-.5597-.51109-1.5824-1.20783-2.9062-1.96875-1.3128-.75461-2.8484-1.55319-4.3438-2.25-.5759-.26839-1.1245-.53236-1.6562-.8125-.1606-.09372-.3456-.13725-.5312-.125zm264.375.34375c-.2255.01859-.4366.11855-.5938.28125-1.997,2.04773-4.0346,3.75732-5.6562,4.6875-1.06.60805-2.133,1.40799-3.0313,2.15625s-1.5896,1.42274-2,2.09375c-.3611.59011-.6169,1.079-.6875,1.625-.0427.33165.1388.80796.125.78125 .1687.32353.5106.51891.875.5 .5365-.02398.8131-.2245 1.125-.4375 .319-.21814.67-.4956.9375-.9375 .0843-.13912.1215-.15425.125-.15625-.0173.00986.0708-.00621.125,0 .197.02258.4693.14852.9687.5625 .301.24958.543.40716.7188.53125 .325.23555.7644.23661 1.0905.00262s.466-.65049.347-1.03387c-.0449-.1458-.1123-.30328-.2187-.59375-.2079-.56613-.1976-.80277-.125-.90625 .1153-.16474.4399-.3459 1.1874-.5 1.1909-.24554 3.4728-.71203 5.0938-1.0625 1.9009-.41087 4.0551-2.11051 6.25-4.25 .2232-.22585.3161-.54976.2465-.85957s-.292-.56292-.5903-.67168c-1.2541-.43351-2.4643-.83872-3.4374-1.125-.5502-.1618-1.449-.39417-2.5938-.65625-.0916-.02466-.1864-.0352-.2812-.03125zm12.2812,4.09375c-.1883.03023-.3628.11749-.5.25-1.4235,1.26386-2.8982,2.51902-4.5625,3.8125l-2.375,1.84375c-.3354.26135-.4514.71648-.2822,1.10651s.5809.61615 1.0009.54974l3.375-.625c3.6873-.69068 6.448-1.63409 8.8126-3.25 .2955-.1926.4571-.53551.4174-.88602s-.2739-.64862-.605-.77023c-1.6271-.67292-3.2336-1.35367-4.8124-1.96875-.1483-.06078-.3098-.08231-.4688-.0625zm-284.5938.03125c-.1458.01931-.285.07285-.4062.15625-.5666.35626-1.157.70073-1.6875,1.0625-.6404.43656-1.3605.95386-2.0937,1.5-.2547.1874-.397.49111-.3781.80673s.1966.60015.4718.75577c1.3268.77038 2.6741,1.42361 3.875,1.90625s2.2242.81251 3.1563.8125c.4754,0 1.2985.14386 2.2187.4375 .9269.29583 1.9376.69634 2.75,1.125 .7464.39377 1.2793.6976 1.7187.90625 .3898.19821.865.09887 1.1427-.23891s.2834-.82319.0136-1.16734c-.0963-.12331-.2214-.31916-.4687-.625-.5345-.66057-1.5695-1.49623-3-2.59375s-3.2103-2.33528-4.9688-3.5c-.6336-.41969-1.1538-.80077-1.7188-1.1875-.1831-.1247-.4047-.18009-.625-.15625zm-5.6562,4.0625c-.1848.02141-.3589.09759-.5.21875-.9902.8025-2.0272,1.67251-3.0938,2.59375-.2247.19489-.3429.48531-.3182.78173s.1893.56326.4432.71827c1.4609.93194 2.8657,1.68602 4.1563,2.0625 1.3877.40481 2.6207.42644 3.5937-.1875 .1108-.06988.3132-.1028.75-.09375 .3745.00776.8368.10053 1.2188.25 .2951.11557.434.15322.5625.21875l-.0937.0625c-.2016.18657-.233.26781-.25.28125-.3215.32124-.3645.82747-.1018,1.19833s.7545.49831 1.1642.30167c.1139-.07449.2115-.1512.3438-.28125 .2083-.20511.2089-.24713.1562-.1875 .065-.07452.1178-.1589.1563-.25 .0822-.05079.156-.11405.2187-.1875 .026-.03354.0613-.07336.125-.15625 .1952-.25294.3373-.43921.4688-.5625 .1958-.18595.3013-.44764.2893-.71737s-.1403-.52103-.3518-.68888c-2.1684-1.69581-5.3718-3.78882-7.625-4.875-.2734-.13177-.5396-.24694-.7813-.375-.1606-.09372-.3456-.13725-.5312-.125zm300.5625.1875c-.1596.02359-.3103.0882-.4375.1875-1.0317.73266-2.0709,1.3829-3.0625,1.90625-1.5038.79357-3.1385,1.92288-3.9375,2.90625-.1913.23529-.2972.46513-.2812.4375-.1479.25984-.1623.57486-.0385.84706s.3705.46854.6635.52794c-.0828-.02147-.1558-.05609-.0938-.03125l.125.03125c.1013.02772.2171.06895.3438.0625 .924-.04703 2.2787-.43459 4.75-1.125 2.5688-.71766 4.3769-1.51341 5.9687-2.53125 .2824-.18667.4414-.51174.4155-.84927s-.2329-.63445-.5405-.77573c-1.1138-.50981-2.2506-.99349-3.4063-1.5-.1454-.07145-.307-.10376-.4687-.09375zm7.9375,3.6875c-.1217.01855-.2386.06104-.3438.125-1.7013,1.02399-3.4522,1.98042-5.125,2.6875-.8771.37077-1.643.79558-2.2187,1.1875-.2842.1934-.5058.3761-.7187.59375 .0124-.01052-.1087.10496-.125.125-.2047.24782-.2673.58361-.1657.88855s.3532.53601.6657.61145c.2161.05525.5446.12549.9687.125 .7779-.00092 1.7438-.1385 2.8437-.34375 2.2366-.41736 4.7097-1.601 7.125-3.09375 .2721-.17972.4306-.48858.4178-.81446s-.1948-.6214-.4802-.77929c-.7292-.40107-1.4752-.79687-2.3126-1.21875-.164-.08291-.3488-.11552-.5312-.09375zm-313.2188.125c-.1883.03023-.3628.11749-.5.25-.431.38484-.605.51448-.9374.8125-.3583.32184-.4124.86359-.125,1.25l-.0938-.0625c-.3729-.27661-.8926-.23664-1.2188.09375l-.7812.78125c-.2035.19075-.3109.46259-.2927.74091s.1599.5339.3865.69659c1.9672,1.42985 4.0987,2.68477 6.3437,3.53125 1.481.55838 2.5975.92443 3.3437,1.125 .0709.01904.1114.02023.1563.03125 .4264.08709.8563-.13242 1.0359-.52887s.0608-.86437-.2859-1.12738c-.1277-.08916-.2637-.20991-.5313-.375-.8042-.49622-1.9719-1.10083-3.4687-1.875-1.0653-.55086-2.4345-1.53546-3.7813-2.5 2.801,1.89615 5.2895,3.07879 7.4688,3 .1877-.00678.3512-.05351.4062-.0625 .3234-.05828.5922-.28247.7076-.59012s.0603-.65332-.145-.90988c.0429.05257-.0517-.12564-.2813-.3125-.7263-.59094-2.0433-1.3217-4.1875-2.375-.8541-.41951-1.7317-.90246-2.5938-1.4375-.1831-.1247-.4047-.18009-.625-.15625zm318.3126,2.78125c-.1459.01929-.2851.07284-.4063.15625-.8621.58732-1.7772,1.18576-2.75,1.78125-1.0245.62705-1.9484,1.22707-2.625,1.71875-.3309.2405-.609.44902-.8437.65625l-.0313.03125c-.2385.22487-.3414.5585-.271.87866s.3038.57982.6147.68384c-.0418-.01319.0217.03471.125.0625 .3092.08282.7323.15626 1.2188.15625 2.1246,0 4.6482-1.26244 7.2812-2.96875 .2192-.13867.3707-.36236.4181-.61734s-.0135-.5182-.1681-.72641c-.1436-.1841-.3392-.47654-.6874-.78125-.3582-.31327-.8133-.5906-1.25-.875-.1831-.1247-.4047-.18009-.625-.15625zm2.1562,4.78125c-.1325.01438-.2604.05701-.375.125-.5757.34518-1.1891.73391-1.625.96875-.6983.37614-1.2209.58475-1.5.65625-.6995.17921-1.3621.43364-1.875.78125-.2506.17001-.4362.34035-.5938.53125s-.3437.34652-.3437.84375c0,.18919.0479.42442.1875.65625s.3775.38142.5.4375c.2987.13666.4075.12145.5938.125s.3995-.02456.625-.0625c.8301-.1397 1.7885-.52672 2.875-1.0625 .1913-.0918.3456-.24613.4374-.4375 .0002-.01042.0002-.02083 0-.03125 .2088-.13871.5056-.30644.9063-.6875 .4254-.40467.7897-.90352 1.0937-1.4375 .1829-.30451.1769-.68651-.0155-.98511s-.5378-.46191-.8907-.42114z" filter="url(#f)"/>
 <path d="m180.77138,707.96248c-1.4002.4584-1.442.3757-.2461-.4871 1.247-.8997 1.2204-1.1253-.1978-1.6808-.901-.3528-2.0308-.3939-2.5107-.0911-2.9128,1.8373-11.4115-3.7349-16.5634-10.8598-1.6136-2.2315-2.1744-2.5509-2.1975-1.2513-.0529,2.979 6.6565,9.4817 12.996,12.5956 4.259,2.0919 5.3871,2.9981 3.8042,3.0554-3.1215.1129-7.4823-2.3636-12.5397-7.1214-2.3603-2.2206-4.2915-3.669-4.2915-3.2192 0,1.5852 8.1667,8.5661 12.862,10.9942 5.9926,3.0993 6.1026,3.8363.2428,1.6271-7.8592-2.9631-15.0619-10.6942-15.0619-16.167 0-1.5169-1.1958-2.6056-4.4034-4.0088-4.5314-1.9824-5.9966-3.6543-2.3495-2.681 2.888.7708 1.9685.071-4.0389-3.0739-4.2746-2.2378-5.7412-3.7312-8.0801-8.227-2.045-3.9309-2.2786-4.7829-.8214-2.9961 2.3304,2.8575 2.6842,1.7026.6119-1.9974-.7692-1.3732-1.4141-3.3345-1.4332-4.3585s1.1763.5013 2.6563,3.3897c3.1112,6.0713 5.6718,8.2664 12.4839,10.702 4.7752,1.7072 5.3744,2.1809 5.3744,4.2486 0,.5493.3992.9988.887.9988 2.2345,0-.5466-4.2866-3.9211-6.0435-8.5519-4.4528-14.6167-12.5916-14.4739-19.4234 .0609-2.9176.0821-2.9307.8087-.493 .9996,3.3539 3.5122,7.9752 5.8467,10.7535 1.749,2.0816 11.5802,7.2167 13.8161,7.2167 2.2,0 .6921-1.6916-2.5864-2.9016-4.184-1.544-10.6934-7.2999-12.6721-11.2053-1.4951-2.9507-1.9314-9.8619-.6225-9.8619 .4301,0 1.3683,1.6551 2.085,3.6779s3.2191,5.7684 5.5608,8.3235c3.449,3.7632 5.4628,4.9973 10.6026,6.4974 4.895,1.4288 6.1101,2.1407 5.3175,3.1153-.7309.8989-.5987,2.0691.4583,4.0561 .8171,1.536 1.74,4.0163 2.0511,5.5115 .7027,3.3788 3.1839,5.8414 11.3057,11.2208 3.4982,2.317 7.021,5.0292 7.8283,6.0269 1.4101,1.743 1.3446,1.7493-1.6639.162-1.7224-.9089-4.0847-1.6525-5.2495-1.6525-3.2204,0-11.3952-4.9248-14.0325-8.4537-1.2899-1.7259-2.9004-5.0294-3.579-7.341-1.3041-4.4423-3.8527-7.699-3.8527-4.9232 0,.8239.6261,2.0284 1.3913,2.6765s1.6856,2.9562 2.0453,5.129c.7735,4.6731 4.4507,8.7817 10.4462,11.6719 2.3211,1.119 5.932,3.4288 8.0242,5.1329-.4578-.3823-1.5367,1.9339-2.1176,1.7362zm-30.189-23.6738c-2.2214-1.0438-5.4743-3.2663-7.2286-4.9388s-3.4369-2.7887-3.7391-2.4802c-.9456.9651 5.4641,6.7998 8.8457,8.0522 5.1076,1.8917 6.5681,1.4557 2.122-.6332zm333.3168,31.2039c0-.5267 1.0447-1.2253 2.3215-1.5524s5.1297-2.6824 8.5622-5.2342c5.3828-4.0016 5.8371-4.1938 3.3051-1.3978-4.7091,5.2001-14.1888,10.6683-14.1888,8.1844zm-2.9356-3.5895c0-.2299 1.6513-1.4287 3.6695-2.6639 7.3689-4.5105 11.9384-9.0106 14.1533-13.9382 1.4755-3.2823 2.8243-4.9514 4.0013-4.9514 4.6989,0 13.3483-11.0735 17.942-22.9702l1.3496-3.4954-.352,4.9934c-.6504,9.226-6.4857,18.3354-14.1118,22.03-2.011.9743-3.1327,1.9497-2.4927,2.1678 1.4804.5042 5.5889-2.0897 10.5315-6.649l3.8668-3.567-2.4822,3.4955c-2.3535,3.3144-10.8394,9.987-12.701,9.987-.4773,0-.868-.66-.868-1.4667 0-2.6829-2.7022-.473-3.3283,2.7217-1.0391,5.3028-12.351,14.7242-17.6787,14.7242-.8246,0-1.4993-.188-1.4993-.4178zm-6.8498-2.5911c0-.409 1.3612-1.319 3.0247-2.0222 6.8256-2.8855 14.5096-8.8714 16.5002-12.8536 1.1016-2.2039 2.0029-4.6991 2.0029-5.5449 0-1.0292.9335-1.5378 2.8218-1.5378 5.15,0 12.2907-10.0291 14.7574-20.7262 1.6059-6.9643 2.9701-7.5585 2.9701-1.2934 0,9.623-6.1862,19.8632-14.1789,23.4707-4.2286,1.9087-5.315,2.9097-5.8484,5.388-1.1538,5.3616-11.3429,13.8646-18.1323,15.1316-2.1546.4021-3.9175.3966-3.9175-.0122zm-6.6829-3.6877c.6371-.7838 2.3276-2.0417 3.7567-2.7959 7.2115-3.8061 15.6303-13.4069 15.6422-17.8385 .0039-1.4367.5524-1.7573 2.3919-1.3984 1.8299.357 3.306-.49 6.3249-3.6295 3.2203-3.3489 4.5839-6.0971 7.4823-15.0801 1.9494-6.0417 3.8549-11.3179 4.2345-11.7249s.6258,3.4326.5472,8.5323c-.0995,6.4596-.655,10.3739-1.8312,12.9037-2.027,4.3595-7.9144,10.763-9.8956,10.763-.7813,0-1.4207.4196-1.4207.9324s-1.2071,1.0746-2.6826,1.2484c-1.6783.1977-2.8109,1.0061-3.0254,2.1594-.3721,2.0006-1.6948,3.8572-7.1219,9.9955-2.7475,3.1077-4.8719,4.3709-9.5473,5.6771-4.9305,1.3775-5.8048,1.4234-4.855.2555zm-26.4063-4.2138c.6469-1.0571 2.8336-2.8728 4.8594-4.0348 4.7463-2.7226 12.0878-11.3 14.2604-16.6614 1.2811-3.161 2.3628-4.3243 4.4095-4.7422 2.0122-.4107 3.2046-1.6553 4.6206-4.8228 2.3619-5.283 5.7397-17.0169 6.3036-21.8979 .4744-4.1057 3.2802-9.1113 4.6299-8.26 .4881.3079.6342.9781.3245,1.4895s-.0811.9296.5078.9296c.7675,0 .7607.5914-.0242,2.0881-.8234,1.5703-.7863,2.8483.1496,5.1545 1.3768,3.3924 1.9195,16.5677.7139,17.3282-.42.265-1.4784,2.019-2.352,3.898s-2.4041,3.6805-3.401,4.0034-2.0909,1.4818-2.4309,2.5751c-.4185,1.3461-1.1803,1.8061-2.3585,1.4244-2.9538-.9567-4.8841.5175-6.0998,4.6591-1.4838,5.0544-9.1418,13.4445-13.0407,14.2872-1.6146.3491-3.9108.8358-5.1028,1.0816-1.5823.3262-1.995.9156-1.5291,2.1843 .5454,1.4857.4112,1.5496-.926.4407-1.0513-.8718-1.7717-.9536-2.1981-.2497-.3487.5759-1.0522,1.0472-1.5632,1.0472s-.3997-.8648.2471-1.9221zm18.3944-.9221c10.0277-7.7931 15.6733-15.0283 15.6733-20.0861 0-1.1203.6083-2.0372 1.3518-2.0372 3.9716,0 10.5564-10.8192 14.4481-23.7388 2.4534-8.1449 2.5188-8.264 4.1847-7.6116 1.1058.433 1.084,1.0234-.1287,3.5044-1.1789,2.4119-1.2358,3.5323-.2966,5.8462 1.3354,3.2901.0999,11.0395-2.7234,17.0817-1.9371,4.1458-8.017,9.9116-10.4515,9.9116-1.5037,0-2.4927,1.7005-2.6138,4.4942-.0237.5493-.3428,1.2234-.709,1.4981s-2.133,2.4228-3.9263,4.7738c-3.7661,4.9374-7.0841,6.927-13.5821,8.1442l-4.6346.8682 3.4081-2.6487zm42.1239.8468c0-.8239.4268-2.1721.9485-2.9961 .8432-1.3316.9486-1.3316.9486,0 0,.824-.4269,2.1722-.9486,2.9961-.8431,1.3317-.9485,1.3317-.9485,0zm-307.2907-.9987c-.8073-.5323-2.4732-.9749-3.702-.9834-3.9381-.027-11.8452-4.8719-14.8421-9.0944-1.5781-2.2234-3.78-6.8202-4.8931-10.2151-1.8433-5.6224-2.3935-6.3314-6.173-7.9528-2.2821-.9791-4.3695-1.7891-4.6385-1.8001-1.3288-.0541-6.3244-5.9783-8.8735-10.5231-3.1831-5.6753-3.2758-6.1467-1.9218-9.7814 1.2722-3.4149 3.3891-2.422 4.7548,2.2301 .5987,2.0394 3.1453,6.0787 5.6591,8.9763 5.7331,6.6084 11.9037,10.4262 16.1603,9.9989 3.5645-.3581 4.8709-2.4671 2.1607-3.4883-3.0023-1.1315-11.9115-9.3165-14.132-12.9834-1.5989-2.6403-1.9759-4.4893-1.6035-7.8619 .3415-3.0919.158-4.2221-.6139-3.782-.7382.4209-.7231.2103.0457-.6393 .6307-.6968.9138-1.8862.6292-2.6432s-.2937-1.3763-.0201-1.3763c.8645,0 4.9382,7.328 6.3846,11.4851 2.8664,8.238 12.3802,16.4785 19.025,16.4785h3.8753l-2.287,1.8902c-1.9646,1.6235-2.1303,2.2221-1.1751,4.2444 .6116,1.2949 2.0908,4.5295 3.2871,7.188 2.027,4.5047 8.3683,10.5973 11.1136,10.6778 .592.0173 2.329,1.156 3.86,2.5302 2.284,2.0502 2.568,2.7636 1.5826,3.9755-.815,1.0023-1.5739,1.1612-2.3611.4944-.6381-.5405-3.4147-1.4762-6.1703-2.0793-6.197-1.3565-12.8668-7.0131-14.8067-12.5578-.7466-2.1338-1.8104-5.0032-2.364-6.3764s-1.0434-2.8338-1.0885-3.2458-.4123-.749-.8159-.749l-1.4678.0152c-.4037.0086-1.3147.3913-2.0245.8506-1.0538.682-.9831,1.8239.3856,6.2266 2.1085,6.7821 5.321,10.3618 12.1582,13.5477 2.96,1.3793 6.1525,3.2116 7.0944,4.0717 3.2547,2.9725 1.4395,5.6535-2.2018,3.2518zm230.9254-.6341c-.0052-.4751 3.4645-4.2346 7.7102-8.3541 8.2388-7.994 11.8604-13.0994 11.8663-16.7283 .0027-1.6992.5709-2.2471 2.3302-2.2471 1.2795,0 2.8477-.641 3.4848-1.4245 1.3632-1.6764 5.9423-24.3486 5.2757-26.1214-.2511-.6679.0138-1.5111.5887-1.8737s1.0452-1.7298 1.0452-3.0382 .4697-2.6751 1.0437-3.0372c1.5706-.9906 3.908,2.7209 3.3331,5.2929-.2773,1.2406.2001,3.6456 1.0608,5.3445 2.5748,5.0817 1.0536,19.6235-2.6122,24.9703-.984,1.4353-1.5085,2.8959-1.1656,3.2458s-.6608.6432-2.2306.6515c-3.8817.0209-4.9596.8931-6.8139,5.5128-.8742,2.1778-3.8338,6.3039-6.5769,9.1689-4.1081,4.291-5.7754,5.3292-9.4571,5.8891-2.4582.3739-5.4604,1.3397-6.6713,2.1462s-2.2059,1.0776-2.2111.6025zm-14.9133-4.1434c-2.7187-.5755-2.0756-1.7423 3.7696-6.8389 7.1459-6.2306 14.4359-15.8832 13.8177-18.2957-.3183-1.2425.2821-2.186 1.8574-2.9184 2.1762-1.012 2.3277-1.6162 2.3277-9.2829 0-12.431 2.7839-25.7982 5.3727-25.7982 .6715,0 1.48,1.6286 1.7965,3.6193s1.3079,4.4451 2.2031,5.4548c1.9483,2.1974 2.771,18.1215 1.2849,24.872-.5842,2.6535-.5866,4.6501-.0062,5.3641 .6674.8211-.4489,1.1974-4.0152,1.3536-5.6445.2473-5.5038.1739-5.9419,3.1035-.1809,1.21-.8514,2.7333-1.4899,3.3849s-1.1611,1.6143-1.1611,2.1393c0,1.8079-4.9995,7.6395-7.8302,9.1336-1.5601.8233-3.9342,1.4969-5.2759,1.4969s-3.0149.8044-3.7181,1.7873-2.0493,1.6242-2.9911,1.4248zm-17.5154-2.1449-2.5926-.5678 2.6406-5.6318c1.4523-3.0975 4.0475-7.267 5.7669-9.2657s4.0231-5.428 5.1191-7.6207c2.4015-4.8043 1.873-5.1915-6.4843-4.7503-4.8618.2566-5.8048.6128-6.0927,2.3009-1.0606,6.2194-8.7369,17.4773-11.9171,17.4773-.4596,0-.9762.9706-1.1481,2.1567-.3119,2.1511-2.7568,3.1583-5.2735,2.1727-2.715-1.0634-2.5343-4.2374.4974-8.7345 1.6476-2.4441 2.9955-4.9245 2.9955-5.5121s.3986-1.0685.8856-1.0685c1.5384,0 6.1711-9.0715 5.6571-11.0776-.3594-1.4028.1386-2.0749 1.8655-2.5173 2.7687-.7091 2.716-.1999.8538-8.2627-1.6409-7.1044-1.7836-25.8167-.2123-27.8277 1.5189-1.9441 3.4777-1.4734 4.1562.9987 .7159,2.6088 1.2269,3.8732 5.2592,13.0128 2.9835,6.7624 5.431,17.0292 5.1565,21.6304-.1853,3.1066.8341,3.7058 5.5275,3.2491l3.7964-.3696 .0418-15.238c.0355-12.9709.305-15.6479 1.8113-17.9944 1.6592-2.5843 1.8501-2.6443 3.0563-.9606 .7077.9877 1.2866,2.5743 1.2866,3.5257s1.1785,3.1593 2.6189,4.9066c1.9114,2.3182 2.7355,4.6117 3.0506,8.489 .3248,3.9972.7666,5.1815 1.7845,4.7829 .7441-.2915 1.3528-.0182 1.3528.6071s-.6273,1.3826-1.3941,1.6829c-1.0086.3949-1.3843,2.2911-1.3585,6.8568 .0307,5.4389.3248,6.4535 2.1281,7.3446 1.6902.8352.9169,1.0469-4.0235,1.1015-6.2224.0688-6.573.3204-6.1502,4.4132 .105,1.0167-.7203,2.7152-1.834,3.774s-2.6743,3.2071-3.468,4.7735c-1.7339,3.4221-6.946,8.0797-9.0416,8.0797-1.0488,0-1.3437.637-.9698,2.096 .2954,1.1529.2772,1.831-.0405,1.5068s-1.0584-.2255-1.6462.2195c-.5877.4448-2.2352.5532-3.6612.2409zm-181.6302-4.8202c-6.1606-3.2997-7.4678-4.5684-9.5405-9.2596-.9636-2.181-2.1254-3.9652-2.5819-3.9652s-.8299-.8319-.8299-1.8485c0-3.818-2.1391-8.2811-3.6799-7.6775-1.2103.474-1.2665.309-.3001-.8794 .9898-1.2173.4791-1.8311-3.0418-3.6549-11.7483-6.0859-18.2224-16.8032-14.4716-23.9561 .8206-1.5649.6905-1.9317-.685-1.9317-1.2949,0-1.4266-.2769-.5548-1.1667 1.4378-1.4674 4.7329,1.8705 7.5602,7.6582 3.3271,6.8109 11.928,14.7799 18.7366,17.36 5.6823,2.1533 5.9723,2.4209 5.3201,4.9096-.7867,3.0023.728,12.1856 2.0099,12.1856 .4668,0 .8488.4826.8488,1.0723s2.4219,3.3313 5.382,6.0923 5.382,5.3722 5.382,5.8023c0,1.9805-5.2308,1.5749-9.5541-.7407zm18.0677-.6837c-.8383-.8555-2.0823-1.5555-2.7646-1.5555-2.2013,0-8.7774-5.2757-10.285-8.2512-1.5702-3.0988-2.0261-5.7053-2.2022-12.5883-.1043-4.0767-.2691-4.3302-2.5283-3.8894-1.3293.2595-2.1839.0871-1.8994-.3829s1.152-.8544 1.9275-.8544 1.396-.3371 1.3789-.749c-.0552-1.3292-2.5982-4.2445-3.7025-4.2445-.5893,0-3.436-2.3595-6.326-5.2431-5.3166-5.3053-8.5326-11.9784-8.5326-17.7053 0-1.4401-.5284-3.1577-1.1742-3.8167-.9133-.9322-.5282-1.1985 1.7328-1.1985 2.6475,0 3.4297.9036 8.758,10.1177 5.4047,9.3463 11.9416,16.8472 14.6821,16.8472 .627,0 1.937.8988 2.9111,1.9974s2.4735,2.0111 3.3319,2.0277c1.3345.026 1.3125.178-.1516,1.0484-1.7954,1.0673-2.374,3.9148-.7955,3.9148 .5044,0 .678,1.5035.3859,3.3408-.6887,4.3313 1.169,7.8577 7.4272,14.0989 4.9691,4.9556 6.1929,7.5279 3.5817,7.5279-.7633,0-2.0276.2504-2.8095.5567s-2.1075-.1431-2.9457-.9987zm19.8916-1.7364c-1.3303-.5045-2.6514-1.2378-2.9357-1.6295s-1.8379-1.1558-3.4525-1.698c-3.8443-1.2909-8.2075-9.9843-9.0141-17.9602-.472-4.6676-.9592-5.864-2.5619-6.2918-1.9326-.5158-1.9291-.5471.1504-1.3322 1.1712-.4422 2.1178-1.1555 2.1035-1.5853s-2.6048-2.6521-5.7566-4.939c-8.8751-6.4392-10.6498-9.402-11.4425-19.1028-.5602-6.8562-.4345-8.1984.768-8.1984 1.7818,0 4.9521,3.4595 7.0455,7.6883 4.6406,9.374 11.3646,16.9013 19.0211,21.2931 2.2495,1.2903 4.09,2.6062 4.09,2.924s-.9907,1.0217-2.2017,1.5639c-1.9387.8681-2.1599,1.5822-1.852,5.9794 .42,5.9986 2.87,11.209 7.4853,15.9193 5.1152,5.2208 4.268,9.5363-1.4468,7.3692zm102.7187.2123c0-.532-.639-.7171-1.42-.4113-2.7663,1.0835-1.1083-7.6771 3.2996-17.4339 2.3367-5.1723 3.8367-9.6967 3.3683-10.1598-.4644-.4593-2.1655-1.0269-3.7801-1.2615-1.8827-.2736-1.1138-.4802 2.144-.5762 2.7938-.0824 5.3116-.5329 5.5952-1.0013s-.5171-4.2686-1.7796-8.4447-2.1359-7.7558-1.9408-7.9549-.2264-3.4773-.9365-7.2848c-1.3749-7.3716-.6178-12.4159 1.8633-12.4159 2.1152,0 8.716,15.8031 14.7045,35.2042 .9667,3.1316 2.0334,4.7776 3.1388,4.8435 1.0458.062.756.3848-.7718.8593-1.3455.4179-3.6505.5431-5.1223.2779-1.7477-.3146-2.8119-.0065-3.0681.8884-.2158.7536-1.1758,4.2914-2.1335,7.8617-1.1774,4.3893-2.7981,7.6373-5.0048,10.0291-1.795,1.9457-3.2635,4.0646-3.2635,4.7087s-.8517,1.6364-1.8927,2.2049c-2.3538,1.2857-3,1.3001-3,.0666zm-85.0731-2.7416c-.7746-.3181-3.3381-2.4655-5.6967-4.7722-4.9984-4.8884-6.5535-9.9809-5.5503-18.1756 .5793-4.7323.453-5.3085-1.1762-5.365-1.5918-.0551-1.5564-.174.2764-.9288 2.6817-1.1042 3.8642-3.0027 1.8703-3.0027-.8391,0-1.5256-.4494-1.5256-.9987s-.4538-.9987-1.0084-.9987c-1.1258,0-6.6598-6.1016-8.4988-9.3704-1.0909-1.9391-6.1494-16.7856-6.1494-18.0483 0-.2998.3303-.4736.7339-.3864s1.5102-.1878 2.4589-.6111c2.0985-.9363 4.2035.6899 6.3086,4.874 .8492,1.6878 4.1583,7.1136 7.3535,12.0571 6.2408,9.6557 12.7046,15.9198 15.6235,15.1407 .9752-.2602 1.5307-.0728 1.2344.4165s-1.9483,1.2599-3.6709,1.7123c-2.766.7266-3.169,1.2776-3.4477,4.7147-.4077,5.0265 1.4876,11.9626 4.5912,16.8021 1.8843,2.9384 2.2183,4.2189 1.4323,5.4928-1.1237,1.8212-2.9802,2.3422-5.159,1.4477zm63.3007-1.0178c-3.135-1.3127-3.6688-1.9896-3.6641-4.6468 .0072-4.0742 1.5934-9.8491 4.4972-16.3726 1.2909-2.9001 2.3471-5.72 2.3471-6.2666 0-2.1443-5.0432-3.0085-10.2902-1.7636-5.1193,1.2148-5.1595,1.2542-5.8675,5.765-2.9614,18.8674-3.4096,20.8054-4.9509,21.409-.7343.2876-1.5765.1243-1.8716-.3631s-1.5412-.7001-2.7692-.4728c-1.914.3542-2.3907-.1902-3.3391-3.8143-1.174-4.486-.3781-9.9516 2.4093-16.546 .7743-1.8317 1.1524-4.369.8402-5.6385-.3695-1.5026-.0788-2.4994.8333-2.8566 1.0729-.4202.3889-2.1211-2.9217-7.2656-6.351-9.8687-9.6311-23.4483-6.1978-25.6586 2.2612-1.4558 4.4156-.2673 5.1847,2.8601 .5631,2.2899 4.582,8.739 6.5,10.4305 .3114.2746.8615,1.1734 1.2225,1.9974 1.4799,3.378 4.9603,8.3865 9.4735,13.6326 2.483,2.8862 4.1781,3.8564 7.7084,4.4115 5.5484.8726 6.3616.4545 4.6039-2.3667-1.7071-2.7399-4.6118-11.5104-4.6962-14.1794-.0347-1.0986-.6947-4.3647-1.4666-7.258-1.1746-4.4026-1.1929-5.7466-.1118-8.2393 2.2919-5.2845 3.5014-4.004 9.2139,9.7548 .9692,2.3345 2.0481,4.2445 2.3976,4.2445s1.1756,1.91 1.8359,4.2444 2.6651,6.4916 4.4551,9.238c5.0372,7.7292 5.1735,9.0855 1.0525,10.4736-3.5357,1.1909-4.4283,2.4978-2.2397,3.2792 .8966.32.7659.9633-.4893,2.4089-.9418,1.0847-1.7124,2.4614-1.7124,3.0592 0,2.2291-3.8173,10.071-5.8376,11.9919-1.1515,1.0949-2.1642,2.9465-2.2504,4.1147s-.1731,2.0802-.1931,2.0267-1.6877-.7884-3.7059-1.6335zm190.0808-2.2642c.576-1.0985 1.2675-1.9974 1.5366-1.9974s.018.8989-.5581,1.9974-1.2675,1.9974-1.5366,1.9974-.018-.8988.5581-1.9974zm-232.5596-.5567c-.3216-.8555-1.1237-1.3444-1.7824-1.0864s-1.9001-.3683-2.7587-1.3918c-1.676-1.9977-4.0687-9.8226-3.257-10.6509 .2702-.2758.1258-1.4821-.3208-2.681-.5379-1.4438-.3516-2.822.5517-4.0829 1.6955-2.3664 1.7843-6.5042.1406-6.547-.7271-.0189-.5042-.588.5494-1.4034 1.6682-1.2908 1.5726-1.5757-1.6233-4.8375-6.1608-6.2877-9.2202-12.4632-11.3502-22.9107-.6054-2.9693-.4042-4.043 1.0011-5.341 .9674-.8934 2.1507-1.3774 2.6296-1.0753s4.23,6.3009 8.3357,13.3307c8.1629,13.9765 13.2778,19.406 19.1569,20.3353l3.5625.5632-2.9356.722c-7.4102,1.8228-7.72,2.045-8.5527,6.135-.9335,4.5854 1.778,19.4605 3.5569,19.5128 1.8338.0538-2.6022,2.9643-4.5181,2.9643-.9904,0-2.0639-.6999-2.3856-1.5554zm235.1188-4.9362c.346-1.6478 1.062-3.4455 1.5912-3.9948 .6322-.6561.7161-.1422.2447,1.4981-1.159,4.0322-2.5576,5.9343-1.8359,2.4967zm-334.2833-4.4941c0-.5493.1942-.9987.4315-.9987s.7037.4494 1.0363.9987 .1385.9987-.4315.9987-1.0363-.4495-1.0363-.9987zm-39.9139-25.5676c-.694-.7685-.8301-1.3974-.3024-1.3974 1.0161,0 2.4871,1.8999 1.9067,2.4626-.1884.1827-.9104-.2966-1.6043-1.0652zm207.1741-179.2988c-.6489-1.2376-2.1906-3.3626-3.426-4.7224s-2.5273-3.6154-2.8708-5.0126-1.8039-4.3549-3.245-6.573-3.2371-5.8302-3.9909-8.0274-2.3611-5.6-3.5718-7.562c-2.1229-3.4406-2.1364-3.6085-.3804-4.7277 1.0013-.6382 2.4916-.8976 3.3117-.5763 1.2103.4739 1.4891-.3285 1.4804-4.26079-.0059-2.66454.1939-7.00059.444-9.63564 .3923-4.13301.948-6.56659 3.0708-13.44812 .2876-.93233.9445-.80211 2.5191.49935 5.7667,4.76647 5.9813,5.19088 5.3622,10.6015-.3236,2.82747-.6499,8.36117-.7249,12.29709-.1067,5.58891-.4284,7.04201-1.469,6.63441-.9142-.3581-1.3325.2952-1.3325,2.0817 0,1.432.4404,2.6036.9786,2.6036s.9785.4094.9785.9098 1.5412,4.2685 3.4249,8.3737 3.4249,7.9105 3.4249,8.4562 .9558,1.6397 2.1241,2.4314c1.5152,1.0269 1.8659,1.849 1.2232,2.8683-.4956.7858-.901,3.0018-.901,4.9243 0,3.0492-.335,3.5349-2.6251,3.8049-1.91.2252-2.9466-.3034-3.805-1.9403zm-52.7713-1.2332c-3.3735-1.5103-4.1469-2.3987-7.0707-8.1216-2.82-5.5201-6.1273-16.4549-7.1409-23.6099-.4747-3.3508-1.2401-4.9227-2.7632-5.67496-1.9013-.93901-1.7728-1.04851 1.3182-1.12331 4.7623-.11526 5.8174-1.07095 6.2507-5.66193 .5668-6.00651 5.3603-14.80584 9.694-17.79531 5.7179-3.94433 6.9558-3.51561 6.1955,2.14563-.3477,2.58879-1.4357,6.29646-2.4179,8.23928s-2.405,6.41161-3.1616,9.9307c-.9683,4.50278-1.8858,6.5344-3.0971,6.8578-2.1515.5741-2.1521.5586.3465,8.3007 4.1887,12.9788 6.3656,24.4569 5.0249,26.4951-.5342.8122-1.3935.8169-3.1784.0178zm-11.1513-27.3259c-.3251-.3319-.5564.2581-.5139,1.3108 .0469,1.1635.2788,1.4001.5912.6034 .2826-.7209.2479-1.5823-.0773-1.9142zm5.8712-23.9688c-.3251-.33186-.5564.258-.5139,1.31079 .0469,1.16344.2788,1.40008.5912.60339 .2827-.72095.2479-1.58232-.0773-1.91418zm4.3015,1.22757c0-.82393-.173-1.49805-.3845-1.49805s-.6381.67412-.9479,1.49805-.1367,1.49806.3846,1.49806 .9478-.67413.9478-1.49806zm82.1971,47.73463c-2.3366-1.7915-4.6317-5.2474-7.2228-10.876-2.0889-4.5376-5.5015-10.3542-7.5836-12.9257s-3.7858-5.0763-3.7858-5.5657-.7706-.9254-1.7124-.9689c-1.118-.0514-.8132-.4151.8778-1.0475 2.1532-.8055 2.5961-1.5929 2.6244-4.66512 .0187-2.03283.1206-7.5419.2265-12.24232s-.0744-9.41929-.4003-10.48636c-.7781-2.54684.9576-5.50789 2.137-3.6455 .4494.70991 2.1007,1.63778 3.6695,2.06195 4.8402,1.30876 5.687,4.63908 4.3911,17.27045-.6157,6.00129-.8764,11.3128-.5793,11.8033s.0504,1.2009-.5483,1.5785c-.6866.4332.5101,2.3936 3.2429,5.3122 6.0948,6.5093 10.5345,12.6231 10.5345,14.5068 0,.8821.4404,1.6039.9786,1.6039 1.2927,0 1.2449,3.9157-.0957,7.8406-1.2964,3.7954-2.2984,3.8614-6.7541.4454zm-55.2254.2755c-2.1187-.6688-4.3205-2.0319-4.8927-3.0292s-2.0312-2.9404-3.2421-4.318-2.2017-3.248-2.2017-4.1564-.3859-2.0788-.8575-2.6006-1.8471-4.0947-3.0567-7.9397-2.5851-7.4179-3.0567-7.9397c-1.4888-1.6473-.931-3.5453 1.0419-3.5453 2.5415,0 3.0121-1.0038 3.1304-6.67631 .1451-6.95511 2.4749-13.85032 5.3235-15.75523 2.3374-1.56307 8.6214-1.33236 9.6426.35402 .2218.36642-.6869,4.92197-2.0195,10.12345s-2.2406,10.46845-2.0178,11.70437c.3437,1.9059-.0227,2.2471-2.4134,2.2471-2.5809,0-2.7634.2315-2.1646,2.7464 .3596,1.5105 1.2487,3.6329 1.9757,4.7163s1.3218,2.5243 1.3218,3.2019 1.3288,3.5319 2.9528,6.3429 3.0766,5.8645 3.2281,6.7852 .8042,2.6557 1.4506,3.8555c1.3154,2.4414 1.5633,5.3642.4414,5.2041-.4036-.0575-2.4674-.652-4.5861-1.3208zm80.4426-2.0917c-3.1887-3.026-9.9097-13.6857-11.7673-18.6637-.3505-.9391-2.5293-3.1063-4.8419-4.8158s-4.5567-3.7499-4.9871-4.5343-1.7514-1.4606-2.9356-1.5028c-1.3776-.0491-.7456-.5096 1.755-1.2787l3.9081-1.2018-.3275-7.46002c-.1847-4.20811-1.1911-9.85441-2.3088-12.95286-1.0898-3.02107-2.2007-6.72875-2.4686-8.23928-.4115-2.32079-.1503-2.74643 1.6858-2.74643 1.507,0 2.0041.44864 1.6223,1.46422-.4268,1.13494.0458,1.34249 2.1013.92292 4.0502-.82675 6.6078,2.70772 8.3947,11.60132 1.1242,5.59544 1.2845,9.09832.6318,13.81086l-.8744,6.31397 6.9238,6.6625c9.2851,8.9346 12.8369,17.9371 9.55,24.2054-1.3499,2.5744-1.8024,2.456-6.0616-1.5855zm-136.527-.1443c-.403-1.0071-1.935-3.6377-3.4045-5.8457-4.4885-6.744-8.239-19.4996-8.9068-30.29207-.2051-3.31617-.1737-3.34217 3.4458-2.84669 4.0707.55724 5.1795-.2978 6.2218-4.79785 .7941-3.42859 5.9874-14.12498 8.1191-16.72265 .7889-.96125 2.3839-1.74773 3.5445-1.74773s3.0506-.89426 4.2001-1.98725c1.2193-1.1593 2.3394-1.57538 2.6886-.99869 .3293.5437.1286.98854-.4459.98854-.7,0-.6621.62516.115,1.89513 .9791,1.60013.5345,2.9605-2.8562,8.73864-5.255,8.955-7.9385,17.16981-6.015,18.41282 .9165.59227-.0326.8889-2.8771.89914l-4.2448.01529 .6244,4.24447c.3433,2.3344 1.5202,8.7537 2.6152,14.2649 1.4254,7.1742 1.7461,10.9846 1.1291,13.4145-.9907,3.9021-2.885,5.0354-3.9533,2.3652zm163.8676-5.2761c-2.0011-1.7932-4.3659-4.8251-5.2551-6.7376-3.4546-7.43-17.3367-21.16299-21.5872-21.35549-1.1322-.05127-.7999-.42984.9496-1.08195 2.7554-1.02707 3.4191-2.69011 1.7527-4.39095-.5161-.52674-1.1964-3.87489-1.5116-7.44033-.3722-4.20867-1.5579-8.4874-3.3804-12.19793-1.5998-3.25707-2.5853-6.58153-2.2912-7.72924 .4715-1.84003.7387-1.89521 3.0956-.63912 1.4188.75613 3.7268,1.83558 5.1288,2.39876 4.1352,1.66092 8.5721,10.81738 9.4931,19.59045 .4283,4.07963.4504,8.32352.049,9.43083-.5977,1.64904.013,2.46358 3.3748,4.50197 11.4763,6.958 18.094,18.2217 15.1022,25.7048l-1.2819,3.2062-3.6384-3.2604zm-188.5744-1.1657c0-.6236-.8629-.885-1.9571-.5931-1.2719.3397-1.9571.0308-1.9571-.8821 0-.7725-.3364-1.4046-.7477-1.4046-1.3067,0-4.0448-7.6276-5.0838-14.1623-1.1408-7.1747-1.2966-14.1286-.4171-18.61646 .5208-2.658 1.0687-3.10792 4.1045-3.37061 3.2079-.27758 3.6732-.73216 5.5148-5.38833 2.8151-7.11744 6.5509-11.73383 13.2564-16.3813 5.3724-3.72354 10.5395-5.79833 6.311-2.5341-1.07.82595-1.3654,1.48015-.6763,1.49805 2.0107.05221 1.4191,1.60271-2.3577,6.17915-3.5866,4.34581-10.1187,17.37516-10.1187,20.18326 0,.82172-.9745,1.63766-2.1655,1.81318-3.157.46528-3.8344,5.03343-3.12,21.04216 .3371,7.5527.3432,13.7321.0136,13.7321s-.5993-.5017-.5993-1.115zm-3.2624-17.2888c-1.3997-3.0271-1.9295-2.6354-1.0843.8019 .3527,1.4342.9931,2.3857 1.4231,2.1145s.2775-1.5836-.3388-2.9164zm-23.8481,10.1531c-3.6836-7.196-5.0157-10.914-6.0183-16.7986-1.5708-9.21885-1.3943-14.83139.5939-18.89348 1.509-3.08275 2.1536-3.49545 5.4601-3.49545 3.6465,0 3.8123-.15766 6.0548-5.759 1.2681-3.16744 3.3239-7.07641 4.5684-8.68657 2.3773-3.07576 9.7249-6.68525 11.4254-5.61268 .5474.34533 1.8977-.36057 3.0004-1.56866 3.8983-4.27049 3.0579-.98769-1.0983,4.29053-7.2143,9.16172-9.1912,12.18856-11.1319,17.04393-1.4541,3.63794-2.4334,4.76718-4.3308,4.9935-3.7535.44773-5.6876,7.59971-5.7997,21.44648-.0498,6.1419-.4255,12.0915-.8351,13.2213-.7376,2.0352-.7552,2.0335-1.8889-.1813zm-2.2456-17.6086c0-.4905-.7228-1.175-1.6062-1.52105-1.3431-.52583-1.4036-.37977-.3695.89195 1.4092,1.733 1.9757,1.9133 1.9757.6291zm239.4976,17.8882c-1.375-1.1037-3.8504-4.4492-5.501-7.4342-4.4191-7.9916-8.3717-12.11598-14.7079-15.34754l-5.6525-2.88281 1.7958-2.26349c1.4703-1.8531 1.683-3.28541 1.1732-7.89998-.708-6.40819-3.573-12.08341-8.6209-17.07689-3.8137-3.77247-4.2101-5.1655-2.0023-7.03559 1.2021-1.01824 1.4678-.95 1.4678.37707 0,.89118.4664,1.62034 1.0364,1.62034s.7991.39156.5093.87014 1.2672.82213 3.46.76345c3.2995-.08829 4.4579.43131 6.7186,3.0136 3.7459,4.27871 6.8668,13.29863 7.0586,20.40008 .107,3.9618.5613,5.91245 1.377,5.91245 1.1336,0 2.8004,1.40524 10.8443,9.14337 1.7137,1.6484 3.9758,4.7711 5.0268,6.9393 1.6433,3.3898 1.7528,4.4886.7817,7.8451-1.4997,5.1834-1.8415,5.4026-4.7649,3.0556zm18.6493-7.7584c-.8078-.9612-2.47-3.9108-3.6939-6.5548-2.0705-4.4732-5.033-7.4115-16.5501-16.4153-1.5809-1.23589-3.6732-2.24708-4.6497-2.24708-1.5447,0-1.4931-.20177.3968-1.55281 2.0407-1.45881 2.0834-1.72786.707-4.44456-.8059-1.59046-1.4652-3.97114-1.4652-5.2904 0-3.50473-3.7646-8.64229-9.5779-13.07106-4.6372-3.5327-6.8119-7.59959-4.0638-7.59959 .5699,0 .8321.33707.5826.74903s.4951.8089 1.6547.8821c8.4045.53051 13.2251,3.67075 18.1933,11.85133 1.9778,3.25665 4.4449,13.89591 3.5608,15.35587-.3008.4969 1.0622,1.68285 3.0291,2.63544 3.5277,1.70853 8.1389,5.45445 13.0702,10.61774 3.0754,3.22014 5.3527,12.03659 3.8496,14.90319-1.257,2.3973-3.1248,2.4641-5.0435.1809zm-277.034-5.0239c-5.5689-6.2805-6.0538-21.98195-.8986-29.09846 1.8063-2.49347 1.8361-2.81241.3587-3.83049-1.198-.82558-.6222-.84616 2.2444-.08014 4.4039,1.17678 5.7099.1153 7.3593-5.98159 2.1367-7.89786 9.2122-14.48473 15.7389-14.65186 2.1811-.05585 4.6057-.87671 5.7723-1.95427 1.1064-1.02187 2.0116-1.39693 2.0116-.83344s-3.4127,4.56552-7.5837,8.8934c-5.6278,5.83951-8.0884,9.25493-9.5407,13.24312-1.508,4.14107-2.595,5.60299-4.7372,6.37129-1.9295.69199-3.3366,2.32211-4.5989,5.32763-2.1992,5.23634-4.0275,14.98867-3.7105,19.79261 .2873,4.3545-.3666,5.113-2.4156,2.8022zm293.0994-2.7593c-1.2233-.8802-3.4727-4.37649-4.9987-7.76942-2.9311-6.51736-5.294-9.18149-10.8799-12.26693-1.8837-1.04048-4.4674-2.67214-5.7415-3.62589s-2.8154-1.42928-3.4249-1.05668c-.6443.39388-.5869.02032.1374-.89245 .8792-1.10826 1.0501-3.29372.581-7.43228-.6289-5.54859-.9959-6.19529-6.8578-12.08156-3.4062-3.42055-7.2103-6.4797-8.4534-6.79813-3.1436-.80526-4.7509-3.61092-3.0161-5.26486 1.1017-1.05044 1.3334-.84326 1.3334,1.19271 0,2.37651.183,2.44469 5.1568,1.92078 4.7521-.50059 5.5005-.27571 9.5352,2.86503 2.408,1.87453 5.3216,5.12456 6.4745,7.22229 1.9723,3.5886 3.8186,12.09732 3.4039,15.68728-.1249,1.0819 2.01,2.73565 6.4467,4.9935 3.6484,1.85674 7.2127,4.05001 7.9207,4.87393 2.5876,3.0115 6.9908,13.35494 6.1374,14.41737-.4694.58431-1.0057,2.08691-1.1919,3.33901-.3216,2.1633-.4491,2.197-2.5628.6763zm-312.6338-7.13961c-2.6508-6.35915-2.9113-8.25001-2.2017-15.97868 .5725-6.23567 1.143-7.97309 3.5286-10.74616 1.5652-1.81933 2.8458-4.03502 2.8458-4.92377 0-1.17394.9159-1.61588 3.349-1.61588 2.922,0 3.485-.42074 4.4162-3.30032 2.5322-7.83075 12.2275-14.04061 19.152-12.26686 2.4938.63879 2.4255.74875-2.6378,4.24593-7.5276,5.19919-10.0225,7.82988-12.6476,13.33567-1.2846,2.69439-2.9962,4.91776-3.8035,4.94082-2.34.06684-5.806,8.63608-7.4626,18.45031-1.9694,11.66725-2.5394,12.65425-4.5384,7.85894zm4.1727-11.85136c0-.24222-.4404-.44041-.9786-.44041s-.9785.47594-.9785,1.05764 .4403.77989.9785.44041 .9786-.81542.9786-1.05764zm17.6136-29.46167c0-.5817-.4403-.77988-.9785-.44041s-.9785.81542-.9785,1.05765 .4403.4404.9785.4404 .9785-.47594.9785-1.05764zm303.9228,37.93294c-1.3934-1.69-2.5334-3.88847-2.5334-4.88549 0-3.45-8.3734-11.60864-14.4153-14.04542-3.1045-1.25214-6.0286-2.62084-6.4978-3.04155s-1.57-.49121-2.4463-.15665c-1.3873.52966-1.4183.38883-.24-1.08935 1.1583-1.45316 1.113-2.47695-.3145-7.10895-2.0351-6.60367-4.2821-9.17107-13.1521-15.02721-3.7803-2.49588-7.1645-5.01885-7.5204-5.60659-1.0746-1.77454 1.0767-3.15569 2.3934-1.53654 .7895.97081 2.3543,1.28232 4.8023.95589 2.871-.38282 4.4784.10861 7.6778,2.34736 6.137,4.29423 9.2042,8.69884 11.5693,16.61417l2.1484,7.19009 5.9075,2.9961c11.0934,5.62625 15.28,10.77515 16.5203,20.31719 .7842,6.03364-.2034,6.5597-3.8992,2.07695zm-342.5049-8.40273c-3.4306-7.37842.1724-19.96374 7.2427-25.29876 1.629-1.2292 2.9619-2.94365 2.9619-3.80992 0-.92779.5541-1.35796 1.3485-1.04683 1.6551.6482 3.5442-1.13814 3.5442-3.35144 0-2.24669 7.9374-10.64551 11.3822-12.04377 3.8135-1.54796 7.1758-1.96855 10.3902-1.29969 3.5557.73988 3.3988,1.85927-.4893,3.49081-7.9837,3.35017-13.8494,8.76226-16.934,15.62461-1.3374,2.97514-2.5036,4.23641-3.9245,4.24447-1.9477.01104-7.2653,5.25015-9.3352,9.19747-.5505,1.04997-1.7691,5.55297-2.7078,10.00668l-1.7069,8.09762-1.772-3.81125zm352.2032.72414c-.5382-.40355-1.7526-2.44189-2.6988-4.52964-3.0639-6.76036-9.2325-13.11379-14.3503-14.78032-1.9251-.62686-3.9185-1.53485-4.4297-2.01779s-1.7693-.87806-2.7957-.87806c-1.2479,0-1.6815-.49104-1.3087-1.48227 .3065-.81525-.0693-2.72527-.8351-4.24448s-1.6224-3.93316-1.9036-5.36434c-.7183-3.65642-5.9911-9.0751-12.0596-12.39313-6.3598-3.47737-7.8439-5.09892-6.1952-6.7688 .9321-.94406 1.0652-.86918.6128.3448-.4704,1.26239.0644,1.47431 2.875,1.13943 5.131-.61136 7.5374.32189 12.6322,4.89887 4.4375,3.98665 8.0096,9.64428 9.3956,14.88162l.6608,2.49676 1.2494-2.37341c.9409-1.78744.9829-2.97024.1702-4.79083-.5936-1.32957-1.0793-3.52984-1.0793-4.88948 0-3.66312-6.6665-10.43447-14.1886-14.41176-3.5846-1.89542-6.6843-3.72143-6.888-4.0578s1.4448-.68419 3.6634-.7729c8.1669-.3266 17.531,8.12396 21.4015,19.31356 1.3929,4.02669 2.9288,6.66339 4.2358,7.27168 1.1278.52488 4.3984,2.00592 7.2678,3.29121 3.079,1.37913 6.31,3.78618 7.8836,5.87311 2.9066,3.85471 6.314,12.02517 5.015,12.02517-.4445,0-.5599.96912-.2564,2.15357 .9907,3.8663-1.4708,1.06386-3.9813-4.53287-2.7913-6.22251-6.9764-9.95245-14.8227-13.21046-4.3124-1.79062-6.0798-2.09449-7.5407-1.29649-2.9176,1.5936-1.7243,3.11302 5.1393,6.5434 7.556,3.77657 13.0659,9.41205 14.5062,14.83701 1.8203,6.85601 1.3077,9.73603-1.3749,7.72464zm-364.447-8.70178c-2.9857-7.66899-.1605-19.26473 6.395-26.24745 4.8362-5.15136 4.8807-5.23318 2.8459-5.23318-4.2603,0-16.1487,17.05239-16.1487,23.16323 0,1.05719-.4403,1.64441-.9785,1.30493-1.4427-.91003-1.1913-6.38527.5763-12.55217 1.9194-6.69599 6.1019-11.41333 12.8786-14.52523 2.8255-1.29749 5.1373-2.8663 5.1373-3.48624 0-2.35395 7.2059-11.01108 11.1017-13.33751 4.6032-2.7489 9.3178-3.86423 11.2251-2.65552 .8974.56872-.2991,1.60904-3.9439,3.42901-5.5632,2.77794-13.4902,9.14949-13.4902,10.84321 0,.55901-.9287,2.34754-2.0638,3.97448-2.1832,3.12915-1.9742,4.04663 1.0284,4.5143 1.288.20061 2.5925-.9952 4.295-3.93731 4.9382-8.53382 11.8471-13.12091 18.8763-12.53266l3.7953.31762-5.4117,2.71259c-2.9764,1.49191-7.2194,4.29176-9.4288,6.2219-4.1789,3.65072-8.5165,11.13276-7.4628,12.87286 .3695.61021-.0711.73714-1.1255.3242-1.2596-.49331-2.7896.48306-5.6026,3.57542-4.804,5.28098-6.4478,8.36625-9.184,17.23716l-2.1563,6.9909-1.1581-2.97454zm374.3949-12.25564c-.7456-1.51054-1.6302-3.91813-1.9657-5.3502-1.0689-4.56114-8.4702-10.52949-14.6925-11.84785-3.0212-.64014-5.9575-.87101-6.5251-.51303-.6789.42825-.8114-.24547-.3873-1.96983 .4178-1.69885.1336-3.22127-.8079-4.32816-.7988-.93911-1.7482-2.97655-2.1098-4.52764-.8418-3.61093-7.7785-10.50064-13.7034-13.61077-6.013-3.15634-6.4093-4.04243-1.8079-4.04243 4.5297,0 11.6256,4.25572 14.8847,8.92706 2.7706,3.97127 3.9737,3.08283 1.6608-1.22656-2.1464-3.99945-8.6916-9.05243-13.8499-10.69226-4.2162-1.34037-6.0808-2.62006-5.1708-3.5488 1.0933-1.1158 8.3254,1.56427 12.4501,4.61376 2.2858,1.68994 4.3562,2.86822 4.601,2.6184 .8752-.89325-8.002-7.79403-13.8015-10.72869-5.4118-2.73852-5.62-2.95818-2.4822-2.62039 1.8837.20278 4.2678.73827 5.2979,1.18996 1.4645.64214 1.697.51198 1.0663-.59685-.4784-.84091-.4442-1.07936.0841-.58584 .4899.45774.8907,1.19367.8907,1.6354s2.3058,3.11951 5.1238,5.95062 5.0197,5.60442 4.8926,6.16293 1.4755,1.6297 3.561,2.38042 4.2874,1.87625 4.8927,2.50117c.8223.84886.404.86775-1.654.0747-1.5151-.58384-3.4404-1.06153-4.2786-1.06153-2.745,0 .4519,2.73151 3.9898,3.40892 1.7861.34195 4.7717,2.07427 6.6347,3.84958s2.6914,2.6921 1.8407,2.03729c-1.5949-1.22766-9.9989-3.46959-10.622-2.83363-.7228.73779 1.8858,4.52355 3.1171,4.52355 4.1139,0 12.4053,6.33731 15.0265,11.48506 1.254,2.46276.7594,2.16369-2.7784-1.68013-3.245-3.52583-5.5677-5.03449-9.4412-6.13251l-5.1373-1.45628v2.41873c0,1.33029.5504,2.57979 1.2231,2.77666 11.4278,3.34407 18.7306,9.29239 19.7543,16.09015 .3282,2.17943.9884,5.19848 1.4671,6.70902s.6998,2.74642.4913,2.74642-.9892-1.2359-1.7348-2.74642zm-22.9932-32.43935c-.7262-.74111-.8535-.35119-.4279,1.31 .3461,1.35045.7895,1.80315 1.0339,1.05518 .2353-.7205-.0374-1.78483-.606-2.36518zm-365.0625,28.482c-.149-4.94057 3.6067-13.96084 7.5774-18.19942 2.1338-2.27763 5.6205-4.55622 8.6342-5.64244 3.9448-1.42183 5.1722-2.38029 5.5886-4.36383 1.5267-7.27386 8.5498-13.72854 15.8657-14.58175l4.8038-.56022-6.1311,3.30396c-7.3087,3.93862-11.9719,8.21331-11.9719,10.97448 0,3.46368-3.1342,7.87961-5.1331,7.23214-1.0153-.32888-3.5792.50279-5.9837,1.94092-4.4298,2.64955-9.1752,10.21016-11.8498,18.87987-1.2848,4.16469-1.3047,4.17911-1.4001,1.01629zm-1.5137-8.77609c1.9298-10.06907 6.3508-15.9604 15.4082-20.5328 2.7985-1.41277 5.2311-3.32559 5.4056-4.25072s-.0594-1.68205-.52-1.68205c-2.2028,0-13.7671,8.91999-15.8602,12.23356-1.3009,2.05953-2.5715,3.53415-2.8235,3.27694s.262-1.5894 1.1421-2.96044 1.6201-3.07036 1.6443-3.7763 2.0193-3.53058 4.4338-6.27701c3.3051-3.75958 4.594-4.65867 5.2157-3.6385 .5211.85488 1.0539.97851 1.4436.33497 .3397-.56101.0645-1.21217-.6116-1.44702s.6422-1.40591 2.9295-2.60235c3.5422-1.85283 4.1588-1.94149 4.1588-.59806 0,.86751-.4099,1.31874-.9109,1.0027s-1.1876-.11783-1.5256.44042c-1.4724,2.43148 3.2489.73625 5.1119-1.83549 3.0243-4.17486 10.8446-9.13656 14.3721-9.11852 2.7569.01407 2.4728.32245-3.348,3.63445-8.2719,4.7066-11.1824,7.54839-13.1693,12.85813-1.2883,3.44292-2.5021,4.77733-5.8505,6.43164-6.0151,2.97186-10.7277,8.03008-14.206,15.24771-1.9407,4.02709-2.8097,5.18774-2.44,3.25874zm91.4424-4.49415c1.9163-1.26396 3.2117-1.26396 2.4463,0-.3326.54928-1.3493.99182-2.2594.9834-1.426-.01319-1.4518-.14909-.1869-.9834zm-66.5652-33.45648c5.4939-7.9293 13.1119-13.59824 18.0025-13.39662 1.7464.072 1.659.2162-.5415.89397-1.443.44447-3.6326,1.52937-4.8658,2.4109l-2.2421,1.6028 3.398.06681 3.398.06681-3.9347,1.25834c-4.2002,1.34327-8.2677,3.69118-12.1816,7.0317-2.3276,1.98666-2.3657,1.98906-1.0328.06529zm321.9633-10.48635c-1.8836-1.05253-3.0727-1.93252-2.6423-1.95554 1.037-.05548 6.5565,2.87349 6.5565,3.47924 0,.65366-.0573.63136-3.9142-1.5237z" fill="url(#a)"/>
 <path d="m156.68 350.56s0 61.429 166.43 79.286 192.32-68.571 175-86.071" fill="none" filter="url(#g)" stroke="#000" stroke-width="2"/>
 <path transform="matrix(1 0 0 -1 668.82 1614.3)" d="m-516.07 923.79s42.26 45.138 169.64 38.214c76.254-4.1644 154.46-25 181.79-42.143" fill="none" filter="url(#e)" stroke="#000" stroke-width="2"/>
 <path d="m156.68 350.56s0 61.429 166.43 79.286 192.32-68.571 175-86.071" fill="none" filter="url(#d)" stroke="#000" stroke-width=".5"/>
 <path transform="matrix(1 0 0 -1 668.82 1614.3)" d="m-516.07 923.79s42.26 45.138 169.64 38.214c76.254-4.1644 154.46-25 181.79-42.143" fill="none" filter="url(#c)" stroke="#000" stroke-width=".5"/>
</svg>
